<mxfile host="app.diagrams.net" modified="2020-08-18T22:31:15.972Z" agent="5.0 (Windows NT 10.0; Win64; x64) AppleWebKit/537.36 (KHTML, like Gecko) Chrome/84.0.4147.125 Safari/537.36 Edg/84.0.522.59" etag="hZ5QjiCsJNdCgB8uKosQ" version="13.6.3" type="github" pages="2">
  <diagram name="Page-1" id="7a6c530e-6e37-e111-ec74-82921da8cc10">
    <mxGraphModel dx="1550" dy="889" grid="1" gridSize="10" guides="1" tooltips="1" connect="1" arrows="1" fold="1" page="1" pageScale="1.5" pageWidth="1169" pageHeight="826" background="#184380" math="0" shadow="0">
      <root>
        <mxCell id="0" style=";html=1;" />
        <mxCell id="1" style=";html=1;" parent="0" />
        <mxCell id="23046e2b9bb16c14-116" value="Azure Group" style="whiteSpace=wrap;html=1;rounded=1;shadow=0;strokeColor=none;strokeWidth=2;fillColor=#009BFF;fontSize=20;fontColor=#FFFFFF;align=center;arcSize=3;verticalAlign=top;spacingTop=4;" parent="1" vertex="1">
          <mxGeometry x="287" y="217" width="1180" height="550" as="geometry" />
        </mxCell>
        <mxCell id="23046e2b9bb16c14-64" value="Web role instances" style="rounded=1;whiteSpace=wrap;html=1;shadow=0;strokeWidth=2;fillColor=#0072BC;fontSize=12;fontColor=#FFFFFF;align=center;strokeColor=none;arcSize=3;verticalAlign=top;" parent="1" vertex="1">
          <mxGeometry x="1286" y="291" width="150" height="420" as="geometry" />
        </mxCell>
        <mxCell id="23046e2b9bb16c14-27" value="" style="rounded=1;whiteSpace=wrap;html=1;shadow=0;strokeWidth=2;fillColor=#8BC63E;fontSize=12;fontColor=#000000;align=center;strokeColor=none;arcSize=3;" parent="1" vertex="1">
          <mxGeometry x="726" y="291" width="530" height="420" as="geometry" />
        </mxCell>
        <mxCell id="23046e2b9bb16c14-2" value="" style="rounded=1;whiteSpace=wrap;html=1;shadow=0;strokeWidth=2;fillColor=none;fontSize=12;fontColor=#000000;align=center;strokeColor=#FFFFFF;arcSize=10;" parent="1" vertex="1">
          <mxGeometry x="876" y="420" width="160" height="241" as="geometry" />
        </mxCell>
        <mxCell id="23046e2b9bb16c14-54" value="Availability set" style="rounded=1;whiteSpace=wrap;html=1;shadow=0;strokeWidth=2;fillColor=none;fontSize=11;fontColor=#FFFFFF;align=center;strokeColor=#FFFFFF;dashed=1;verticalAlign=top;" parent="1" vertex="1">
          <mxGeometry x="956" y="441" width="70" height="211" as="geometry" />
        </mxCell>
        <mxCell id="23046e2b9bb16c14-28" value="On-premises networks" style="rounded=1;whiteSpace=wrap;html=1;shadow=0;strokeWidth=2;fillColor=#F04D22;fontSize=12;fontColor=#FFFFFF;align=center;strokeColor=none;arcSize=6;verticalAlign=top;" parent="1" vertex="1">
          <mxGeometry x="466" y="378" width="230" height="330" as="geometry" />
        </mxCell>
        <mxCell id="23046e2b9bb16c14-49" value="" style="rounded=1;whiteSpace=wrap;html=1;shadow=0;strokeWidth=2;fillColor=none;fontSize=12;fontColor=#000000;align=center;strokeColor=#FFFFFF;" parent="1" vertex="1">
          <mxGeometry x="486" y="410" width="80" height="218" as="geometry" />
        </mxCell>
        <mxCell id="23046e2b9bb16c14-1" value="" style="rounded=1;whiteSpace=wrap;html=1;shadow=0;strokeWidth=2;fillColor=none;fontSize=12;fontColor=#000000;align=center;strokeColor=#FFFFFF;" parent="1" vertex="1">
          <mxGeometry x="746" y="420" width="110" height="221" as="geometry" />
        </mxCell>
        <mxCell id="24964f25f45c63f1-1" value="" style="verticalLabelPosition=bottom;html=1;verticalAlign=top;strokeColor=none;fillColor=#FFFFFF;shape=mxgraph.azure.computer;rounded=0;shadow=0;fontSize=12;fontColor=#000000;align=center;" parent="1" vertex="1">
          <mxGeometry x="501" y="424" width="50" height="45" as="geometry" />
        </mxCell>
        <mxCell id="24964f25f45c63f1-2" value="" style="verticalLabelPosition=bottom;html=1;verticalAlign=top;strokeColor=none;fillColor=#FFFFFF;shape=mxgraph.azure.computer;rounded=0;shadow=0;fontSize=12;fontColor=#000000;align=center;" parent="1" vertex="1">
          <mxGeometry x="501" y="494" width="50" height="45" as="geometry" />
        </mxCell>
        <mxCell id="24964f25f45c63f1-3" value="" style="verticalLabelPosition=bottom;html=1;verticalAlign=top;strokeColor=none;fillColor=#FFFFFF;shape=mxgraph.azure.computer;rounded=0;shadow=0;fontSize=12;fontColor=#000000;align=center;" parent="1" vertex="1">
          <mxGeometry x="501" y="564" width="50" height="45" as="geometry" />
        </mxCell>
        <mxCell id="23046e2b9bb16c14-73" style="html=1;startArrow=none;startFill=0;startSize=10;endArrow=none;endFill=0;endSize=10;strokeWidth=3;fontSize=11;fontColor=#FFFFFF;strokeColor=#FFFFFF;rounded=0;" parent="1" source="24964f25f45c63f1-5" target="23046e2b9bb16c14-7" edge="1">
          <mxGeometry relative="1" as="geometry" />
        </mxCell>
        <mxCell id="24964f25f45c63f1-5" value="Gateway" style="shadow=0;dashed=0;html=1;strokeColor=none;shape=mxgraph.mscae.enterprise.gateway;fillColor=#FFFFFF;rounded=0;fontSize=12;fontColor=#FFFFFF;align=center;labelPosition=center;verticalLabelPosition=top;verticalAlign=bottom;" parent="1" vertex="1">
          <mxGeometry x="773" y="541" width="50" height="50" as="geometry" />
        </mxCell>
        <mxCell id="24964f25f45c63f1-6" value="" style="shadow=0;dashed=0;html=1;strokeColor=none;shape=mxgraph.mscae.enterprise.lock;fillColor=#FFFFFF;rounded=0;fontSize=12;fontColor=#000000;align=center;" parent="1" vertex="1">
          <mxGeometry x="896" y="436" width="39" height="50" as="geometry" />
        </mxCell>
        <mxCell id="23046e2b9bb16c14-7" value="" style="shadow=0;dashed=0;html=1;strokeColor=none;labelPosition=center;verticalLabelPosition=bottom;verticalAlign=top;shape=mxgraph.mscae.cloud.azure_load_balancer_feature;fillColor=#FFFFFF;rounded=1;fontSize=12;fontColor=#000000;align=center;" parent="1" vertex="1">
          <mxGeometry x="891" y="541" width="50" height="50" as="geometry" />
        </mxCell>
        <mxCell id="23046e2b9bb16c14-75" style="html=1;startArrow=none;startFill=0;startSize=10;endArrow=none;endFill=0;endSize=10;strokeWidth=3;fontSize=11;fontColor=#FFFFFF;entryX=0.793;entryY=0.26;entryPerimeter=0;strokeColor=#FFFFFF;rounded=0;" parent="1" source="23046e2b9bb16c14-29" target="23046e2b9bb16c14-7" edge="1">
          <mxGeometry relative="1" as="geometry" />
        </mxCell>
        <mxCell id="23046e2b9bb16c14-29" value="" style="verticalLabelPosition=bottom;html=1;verticalAlign=top;strokeColor=none;fillColor=#FFFFFF;shape=mxgraph.azure.virtual_machine;rounded=1;shadow=0;fontSize=12;fontColor=#000000;align=center;" parent="1" vertex="1">
          <mxGeometry x="966" y="493" width="50" height="40" as="geometry" />
        </mxCell>
        <mxCell id="23046e2b9bb16c14-76" style="html=1;entryX=1.016;entryY=0.509;entryPerimeter=0;startArrow=none;startFill=0;startSize=10;endArrow=none;endFill=0;endSize=10;strokeWidth=3;fontSize=11;fontColor=#FFFFFF;strokeColor=#FFFFFF;rounded=0;" parent="1" source="23046e2b9bb16c14-30" target="23046e2b9bb16c14-7" edge="1">
          <mxGeometry relative="1" as="geometry" />
        </mxCell>
        <mxCell id="23046e2b9bb16c14-30" value="" style="verticalLabelPosition=bottom;html=1;verticalAlign=top;strokeColor=none;fillColor=#FFFFFF;shape=mxgraph.azure.virtual_machine;rounded=1;shadow=0;fontSize=12;fontColor=#000000;align=center;" parent="1" vertex="1">
          <mxGeometry x="966" y="546" width="50" height="40" as="geometry" />
        </mxCell>
        <mxCell id="23046e2b9bb16c14-77" style="html=1;entryX=0.802;entryY=0.762;entryPerimeter=0;startArrow=none;startFill=0;startSize=10;endArrow=none;endFill=0;endSize=10;strokeWidth=3;fontSize=11;fontColor=#FFFFFF;strokeColor=#FFFFFF;rounded=0;" parent="1" source="23046e2b9bb16c14-31" target="23046e2b9bb16c14-7" edge="1">
          <mxGeometry relative="1" as="geometry" />
        </mxCell>
        <mxCell id="23046e2b9bb16c14-31" value="" style="verticalLabelPosition=bottom;html=1;verticalAlign=top;strokeColor=none;fillColor=#FFFFFF;shape=mxgraph.azure.virtual_machine;rounded=1;shadow=0;fontSize=12;fontColor=#000000;align=center;" parent="1" vertex="1">
          <mxGeometry x="966" y="598" width="50" height="40" as="geometry" />
        </mxCell>
        <mxCell id="23046e2b9bb16c14-48" value="Azure Vnet" style="shadow=0;dashed=0;html=1;strokeColor=none;fillColor=#FFFFFF;labelPosition=center;verticalLabelPosition=bottom;verticalAlign=top;shape=mxgraph.office.clouds.azure;rounded=1;fontSize=12;fontColor=#FFFFFF;align=center;" parent="1" vertex="1">
          <mxGeometry x="756" y="311" width="83" height="53" as="geometry" />
        </mxCell>
        <mxCell id="23046e2b9bb16c14-50" value="" style="rounded=1;whiteSpace=wrap;html=1;shadow=0;strokeWidth=2;fillColor=none;fontSize=12;fontColor=#000000;align=center;strokeColor=#FFFFFF;" parent="1" vertex="1">
          <mxGeometry x="596" y="409" width="80" height="218" as="geometry" />
        </mxCell>
        <mxCell id="23046e2b9bb16c14-51" value="" style="verticalLabelPosition=bottom;html=1;verticalAlign=top;strokeColor=none;fillColor=#FFFFFF;shape=mxgraph.azure.computer;rounded=0;shadow=0;fontSize=12;fontColor=#000000;align=center;" parent="1" vertex="1">
          <mxGeometry x="611" y="423" width="50" height="45" as="geometry" />
        </mxCell>
        <mxCell id="23046e2b9bb16c14-52" value="" style="verticalLabelPosition=bottom;html=1;verticalAlign=top;strokeColor=none;fillColor=#FFFFFF;shape=mxgraph.azure.computer;rounded=0;shadow=0;fontSize=12;fontColor=#000000;align=center;" parent="1" vertex="1">
          <mxGeometry x="611" y="493" width="50" height="45" as="geometry" />
        </mxCell>
        <mxCell id="23046e2b9bb16c14-53" value="" style="verticalLabelPosition=bottom;html=1;verticalAlign=top;strokeColor=none;fillColor=#FFFFFF;shape=mxgraph.azure.computer;rounded=0;shadow=0;fontSize=12;fontColor=#000000;align=center;" parent="1" vertex="1">
          <mxGeometry x="611" y="563" width="50" height="45" as="geometry" />
        </mxCell>
        <mxCell id="23046e2b9bb16c14-71" style="edgeStyle=orthogonalEdgeStyle;html=1;startArrow=none;startFill=0;startSize=10;endArrow=none;endFill=0;endSize=10;strokeWidth=3;fontSize=11;fontColor=#FFFFFF;strokeColor=#FFFFFF;dashed=1;rounded=0;" parent="1" source="24964f25f45c63f1-4" target="24964f25f45c63f1-5" edge="1">
          <mxGeometry relative="1" as="geometry">
            <Array as="points">
              <mxPoint x="581" y="730" />
              <mxPoint x="798" y="730" />
            </Array>
          </mxGeometry>
        </mxCell>
        <mxCell id="24964f25f45c63f1-4" value="Gateway" style="shadow=0;dashed=0;html=1;strokeColor=none;shape=mxgraph.mscae.enterprise.gateway;fillColor=#FFFFFF;rounded=0;fontSize=12;fontColor=#FFFFFF;align=center;labelPosition=center;verticalLabelPosition=top;verticalAlign=bottom;" parent="1" vertex="1">
          <mxGeometry x="556" y="648" width="50" height="50" as="geometry" />
        </mxCell>
        <mxCell id="23046e2b9bb16c14-55" value="" style="rounded=1;whiteSpace=wrap;html=1;shadow=0;strokeWidth=2;fillColor=none;fontSize=12;fontColor=#000000;align=center;strokeColor=#FFFFFF;arcSize=9;" parent="1" vertex="1">
          <mxGeometry x="1071" y="420" width="160" height="241" as="geometry" />
        </mxCell>
        <mxCell id="23046e2b9bb16c14-56" value="&lt;span&gt;Availability set&lt;/span&gt;" style="rounded=1;whiteSpace=wrap;html=1;shadow=0;strokeWidth=2;fillColor=none;fontSize=11;fontColor=#FFFFFF;align=center;strokeColor=#FFFFFF;dashed=1;verticalAlign=top;" parent="1" vertex="1">
          <mxGeometry x="1151" y="441" width="70" height="211" as="geometry" />
        </mxCell>
        <mxCell id="23046e2b9bb16c14-57" value="" style="shadow=0;dashed=0;html=1;strokeColor=none;shape=mxgraph.mscae.enterprise.lock;fillColor=#FFFFFF;rounded=0;fontSize=12;fontColor=#000000;align=center;" parent="1" vertex="1">
          <mxGeometry x="1091" y="436" width="39" height="50" as="geometry" />
        </mxCell>
        <mxCell id="23046e2b9bb16c14-74" style="html=1;startArrow=none;startFill=0;startSize=10;endArrow=none;endFill=0;endSize=10;strokeWidth=3;fontSize=11;fontColor=#FFFFFF;strokeColor=#FFFFFF;rounded=0;edgeStyle=elbowEdgeStyle;elbow=vertical;" parent="1" source="23046e2b9bb16c14-58" target="23046e2b9bb16c14-2" edge="1">
          <mxGeometry relative="1" as="geometry" />
        </mxCell>
        <mxCell id="23046e2b9bb16c14-78" style="edgeStyle=orthogonalEdgeStyle;html=1;startArrow=none;startFill=0;startSize=10;endArrow=none;endFill=0;endSize=10;strokeWidth=3;fontSize=11;fontColor=#FFFFFF;strokeColor=#FFFFFF;rounded=0;" parent="1" source="23046e2b9bb16c14-58" target="23046e2b9bb16c14-60" edge="1">
          <mxGeometry relative="1" as="geometry" />
        </mxCell>
        <mxCell id="23046e2b9bb16c14-79" style="html=1;startArrow=none;startFill=0;startSize=10;endArrow=none;endFill=0;endSize=10;strokeWidth=3;fontSize=11;fontColor=#FFFFFF;strokeColor=#FFFFFF;rounded=0;exitX=0.796;exitY=0.241;exitPerimeter=0;" parent="1" source="23046e2b9bb16c14-58" target="23046e2b9bb16c14-59" edge="1">
          <mxGeometry relative="1" as="geometry" />
        </mxCell>
        <mxCell id="23046e2b9bb16c14-80" style="html=1;startArrow=none;startFill=0;startSize=10;endArrow=none;endFill=0;endSize=10;strokeWidth=3;fontSize=11;fontColor=#FFFFFF;strokeColor=#FFFFFF;rounded=0;exitX=0.789;exitY=0.767;exitPerimeter=0;" parent="1" source="23046e2b9bb16c14-58" target="23046e2b9bb16c14-61" edge="1">
          <mxGeometry relative="1" as="geometry" />
        </mxCell>
        <mxCell id="23046e2b9bb16c14-58" value="" style="shadow=0;dashed=0;html=1;strokeColor=none;labelPosition=center;verticalLabelPosition=bottom;verticalAlign=top;shape=mxgraph.mscae.cloud.azure_load_balancer_feature;fillColor=#FFFFFF;rounded=1;fontSize=12;fontColor=#000000;align=center;" parent="1" vertex="1">
          <mxGeometry x="1086" y="541" width="50" height="50" as="geometry" />
        </mxCell>
        <mxCell id="23046e2b9bb16c14-59" value="" style="verticalLabelPosition=bottom;html=1;verticalAlign=top;strokeColor=none;fillColor=#FFFFFF;shape=mxgraph.azure.virtual_machine;rounded=1;shadow=0;fontSize=12;fontColor=#000000;align=center;" parent="1" vertex="1">
          <mxGeometry x="1161" y="493" width="50" height="40" as="geometry" />
        </mxCell>
        <mxCell id="23046e2b9bb16c14-60" value="" style="verticalLabelPosition=bottom;html=1;verticalAlign=top;strokeColor=none;fillColor=#FFFFFF;shape=mxgraph.azure.virtual_machine;rounded=1;shadow=0;fontSize=12;fontColor=#000000;align=center;" parent="1" vertex="1">
          <mxGeometry x="1161" y="546" width="50" height="40" as="geometry" />
        </mxCell>
        <mxCell id="23046e2b9bb16c14-61" value="" style="verticalLabelPosition=bottom;html=1;verticalAlign=top;strokeColor=none;fillColor=#FFFFFF;shape=mxgraph.azure.virtual_machine;rounded=1;shadow=0;fontSize=12;fontColor=#000000;align=center;" parent="1" vertex="1">
          <mxGeometry x="1161" y="598" width="50" height="40" as="geometry" />
        </mxCell>
        <mxCell id="23046e2b9bb16c14-69" style="edgeStyle=orthogonalEdgeStyle;html=1;startArrow=none;startFill=0;startSize=10;endArrow=none;endFill=0;endSize=10;strokeWidth=3;fontSize=11;fontColor=#FFFFFF;strokeColor=#FFFFFF;dashed=1;rounded=0;" parent="1" source="23046e2b9bb16c14-62" target="23046e2b9bb16c14-63" edge="1">
          <mxGeometry relative="1" as="geometry" />
        </mxCell>
        <mxCell id="23046e2b9bb16c14-62" value="Firewall" style="shadow=0;dashed=0;html=1;strokeColor=none;labelPosition=right;verticalLabelPosition=middle;verticalAlign=middle;shape=mxgraph.office.concepts.firewall;fillColor=#FFFFFF;rounded=1;fontSize=11;fontColor=#FFFFFF;align=left;spacingLeft=5;" parent="1" vertex="1">
          <mxGeometry x="328" y="475" width="47" height="43" as="geometry" />
        </mxCell>
        <mxCell id="23046e2b9bb16c14-70" style="edgeStyle=orthogonalEdgeStyle;html=1;startArrow=none;startFill=0;startSize=10;endArrow=none;endFill=0;endSize=10;strokeWidth=3;fontSize=11;fontColor=#FFFFFF;strokeColor=#FFFFFF;dashed=1;rounded=0;" parent="1" source="24964f25f45c63f1-4" target="23046e2b9bb16c14-68" edge="1">
          <mxGeometry relative="1" as="geometry">
            <mxPoint x="606" y="730" as="sourcePoint" />
            <Array as="points">
              <mxPoint x="581" y="730" />
              <mxPoint x="1361" y="730" />
            </Array>
          </mxGeometry>
        </mxCell>
        <mxCell id="23046e2b9bb16c14-72" style="edgeStyle=orthogonalEdgeStyle;html=1;startArrow=none;startFill=0;startSize=10;endArrow=none;endFill=0;endSize=10;strokeWidth=3;fontSize=11;fontColor=#FFFFFF;strokeColor=#FFFFFF;dashed=1;rounded=0;" parent="1" source="23046e2b9bb16c14-63" target="24964f25f45c63f1-4" edge="1">
          <mxGeometry relative="1" as="geometry">
            <Array as="points">
              <mxPoint x="351" y="730" />
              <mxPoint x="581" y="730" />
            </Array>
          </mxGeometry>
        </mxCell>
        <mxCell id="23046e2b9bb16c14-63" value="Windows&lt;div&gt;Azure&lt;/div&gt;&lt;div&gt;Load&lt;/div&gt;&lt;div&gt;Balancer&lt;/div&gt;" style="verticalLabelPosition=middle;html=1;verticalAlign=middle;strokeColor=none;fillColor=#FFFFFF;shape=mxgraph.azure.azure_load_balancer;rounded=1;shadow=0;dashed=1;fontSize=11;fontColor=#FFFFFF;align=left;labelPosition=right;spacingLeft=5;" parent="1" vertex="1">
          <mxGeometry x="326" y="593" width="50" height="35" as="geometry" />
        </mxCell>
        <mxCell id="23046e2b9bb16c14-65" value="" style="shadow=0;dashed=0;html=1;strokeColor=none;shape=mxgraph.mscae.enterprise.web;fillColor=#FFFFFF;rounded=1;fontSize=11;fontColor=#FFFFFF;align=center;" parent="1" vertex="1">
          <mxGeometry x="1336" y="531" width="50" height="50" as="geometry" />
        </mxCell>
        <mxCell id="23046e2b9bb16c14-66" value="" style="shadow=0;dashed=0;html=1;strokeColor=none;shape=mxgraph.mscae.enterprise.web;fillColor=#FFFFFF;rounded=1;fontSize=11;fontColor=#FFFFFF;align=center;" parent="1" vertex="1">
          <mxGeometry x="1336" y="450" width="50" height="50" as="geometry" />
        </mxCell>
        <mxCell id="23046e2b9bb16c14-67" value="" style="shadow=0;dashed=0;html=1;strokeColor=none;shape=mxgraph.mscae.enterprise.web;fillColor=#FFFFFF;rounded=1;fontSize=11;fontColor=#FFFFFF;align=center;" parent="1" vertex="1">
          <mxGeometry x="1336" y="370" width="50" height="50" as="geometry" />
        </mxCell>
        <mxCell id="23046e2b9bb16c14-117" style="edgeStyle=orthogonalEdgeStyle;rounded=0;elbow=vertical;html=1;startArrow=none;startFill=0;startSize=10;endArrow=none;endFill=0;endSize=10;strokeColor=#FFFFFF;strokeWidth=3;fontSize=20;fontColor=#FFFFFF;entryX=0.004;entryY=0.516;entryPerimeter=0;" parent="1" source="23046e2b9bb16c14-68" target="23046e2b9bb16c14-65" edge="1">
          <mxGeometry relative="1" as="geometry">
            <mxPoint x="1520" y="590" as="targetPoint" />
            <Array as="points">
              <mxPoint x="1326" y="673" />
              <mxPoint x="1326" y="557" />
            </Array>
          </mxGeometry>
        </mxCell>
        <mxCell id="23046e2b9bb16c14-119" style="edgeStyle=orthogonalEdgeStyle;rounded=0;elbow=vertical;html=1;entryX=-0.002;entryY=0.494;entryPerimeter=0;startArrow=none;startFill=0;startSize=10;endArrow=none;endFill=0;endSize=10;strokeColor=#FFFFFF;strokeWidth=3;fontSize=20;fontColor=#FFFFFF;" parent="1" source="23046e2b9bb16c14-68" target="23046e2b9bb16c14-67" edge="1">
          <mxGeometry relative="1" as="geometry">
            <Array as="points">
              <mxPoint x="1326" y="673" />
              <mxPoint x="1326" y="395" />
            </Array>
          </mxGeometry>
        </mxCell>
        <mxCell id="23046e2b9bb16c14-68" value="Gateway" style="shadow=0;dashed=0;html=1;strokeColor=none;shape=mxgraph.mscae.enterprise.gateway;fillColor=#FFFFFF;rounded=0;fontSize=12;fontColor=#FFFFFF;align=center;labelPosition=center;verticalLabelPosition=top;verticalAlign=bottom;" parent="1" vertex="1">
          <mxGeometry x="1336" y="648" width="50" height="50" as="geometry" />
        </mxCell>
        <mxCell id="23046e2b9bb16c14-81" value="A" style="text;html=1;strokeColor=none;fillColor=none;align=center;verticalAlign=middle;whiteSpace=wrap;rounded=1;shadow=0;fontSize=11;fontColor=#FFFFFF;fontStyle=1" parent="1" vertex="1">
          <mxGeometry x="666" y="678" width="20" height="20" as="geometry" />
        </mxCell>
        <mxCell id="23046e2b9bb16c14-82" value="B" style="text;html=1;strokeColor=none;fillColor=none;align=center;verticalAlign=middle;whiteSpace=wrap;rounded=1;shadow=0;fontSize=11;fontColor=#FFFFFF;fontStyle=1" parent="1" vertex="1">
          <mxGeometry x="1226" y="678" width="20" height="20" as="geometry" />
        </mxCell>
        <mxCell id="23046e2b9bb16c14-83" value="C" style="text;html=1;strokeColor=none;fillColor=none;align=center;verticalAlign=middle;whiteSpace=wrap;rounded=1;shadow=0;fontSize=11;fontColor=#FFFFFF;fontStyle=1" parent="1" vertex="1">
          <mxGeometry x="1406" y="680" width="20" height="20" as="geometry" />
        </mxCell>
        <mxCell id="23046e2b9bb16c14-84" value="" style="rounded=0;whiteSpace=wrap;html=1;shadow=0;strokeWidth=2;fillColor=#F04D22;fontSize=12;fontColor=#FFFFFF;align=center;strokeColor=none;arcSize=6;verticalAlign=top;" parent="1" vertex="1">
          <mxGeometry x="326" y="820" width="300" height="102" as="geometry" />
        </mxCell>
        <mxCell id="23046e2b9bb16c14-85" value="" style="rounded=0;whiteSpace=wrap;html=1;shadow=0;strokeWidth=2;fillColor=#8BC63E;fontSize=12;fontColor=#FFFFFF;align=center;strokeColor=none;arcSize=6;verticalAlign=top;" parent="1" vertex="1">
          <mxGeometry x="626" y="820" width="400" height="102" as="geometry" />
        </mxCell>
        <mxCell id="23046e2b9bb16c14-86" value="" style="rounded=0;whiteSpace=wrap;html=1;shadow=0;strokeWidth=2;fillColor=#0072BC;fontSize=12;fontColor=#FFFFFF;align=center;strokeColor=none;arcSize=3;verticalAlign=top;" parent="1" vertex="1">
          <mxGeometry x="1026" y="820" width="390" height="102" as="geometry" />
        </mxCell>
        <mxCell id="23046e2b9bb16c14-87" value="A" style="text;html=1;strokeColor=none;fillColor=none;align=center;verticalAlign=middle;whiteSpace=wrap;rounded=1;shadow=0;fontSize=30;fontColor=#FFFFFF;fontStyle=1" parent="1" vertex="1">
          <mxGeometry x="326" y="853" width="40" height="35" as="geometry" />
        </mxCell>
        <mxCell id="23046e2b9bb16c14-88" value="B" style="text;html=1;strokeColor=none;fillColor=none;align=center;verticalAlign=middle;whiteSpace=wrap;rounded=1;shadow=0;fontSize=30;fontColor=#FFFFFF;fontStyle=1" parent="1" vertex="1">
          <mxGeometry x="626" y="853" width="40" height="35" as="geometry" />
        </mxCell>
        <mxCell id="23046e2b9bb16c14-89" value="C" style="text;html=1;strokeColor=none;fillColor=none;align=center;verticalAlign=middle;whiteSpace=wrap;rounded=1;shadow=0;fontSize=30;fontColor=#FFFFFF;fontStyle=1" parent="1" vertex="1">
          <mxGeometry x="1026" y="853" width="40" height="35" as="geometry" />
        </mxCell>
        <mxCell id="23046e2b9bb16c14-90" value="Computer" style="verticalLabelPosition=top;html=1;verticalAlign=bottom;strokeColor=none;fillColor=#FFFFFF;shape=mxgraph.azure.computer;rounded=0;shadow=0;fontSize=10;fontColor=#FFFFFF;align=center;labelPosition=center;" parent="1" vertex="1">
          <mxGeometry x="393" y="860" width="50" height="45" as="geometry" />
        </mxCell>
        <mxCell id="23046e2b9bb16c14-91" value="VHD" style="shadow=0;html=1;strokeColor=none;fillColor=#FFFFFF;labelPosition=center;verticalLabelPosition=top;verticalAlign=bottom;shape=mxgraph.azure.vhd;rounded=0;fontSize=10;fontColor=#FFFFFF;align=center;" parent="1" vertex="1">
          <mxGeometry x="483" y="857" width="40" height="50" as="geometry" />
        </mxCell>
        <mxCell id="23046e2b9bb16c14-92" value="+" style="text;html=1;strokeColor=none;fillColor=none;align=center;verticalAlign=middle;whiteSpace=wrap;rounded=1;shadow=0;fontSize=30;fontColor=#FFFFFF;fontStyle=1" parent="1" vertex="1">
          <mxGeometry x="443" y="865" width="40" height="35" as="geometry" />
        </mxCell>
        <mxCell id="23046e2b9bb16c14-93" value="+" style="text;html=1;strokeColor=none;fillColor=none;align=center;verticalAlign=middle;whiteSpace=wrap;rounded=1;shadow=0;fontSize=30;fontColor=#FFFFFF;fontStyle=1" parent="1" vertex="1">
          <mxGeometry x="523" y="865" width="40" height="35" as="geometry" />
        </mxCell>
        <mxCell id="23046e2b9bb16c14-94" value="Server&lt;div&gt;Directory&lt;/div&gt;" style="shadow=0;html=1;strokeColor=none;shape=mxgraph.mscae.enterprise.server_directory;fillColor=#FFFFFF;rounded=0;fontSize=10;fontColor=#FFFFFF;align=center;verticalAlign=bottom;labelPosition=center;verticalLabelPosition=top;" parent="1" vertex="1">
          <mxGeometry x="563" y="858" width="36" height="50" as="geometry" />
        </mxCell>
        <mxCell id="23046e2b9bb16c14-95" value="VM Feature" style="shadow=0;html=1;strokeColor=none;fillColor=#FFFFFF;labelPosition=center;verticalLabelPosition=top;verticalAlign=bottom;shape=mxgraph.azure.virtual_machine_feature;rounded=0;fontSize=10;fontColor=#FFFFFF;align=center;" parent="1" vertex="1">
          <mxGeometry x="684" y="861" width="50" height="45" as="geometry" />
        </mxCell>
        <mxCell id="23046e2b9bb16c14-96" value="+" style="text;html=1;strokeColor=none;fillColor=none;align=center;verticalAlign=middle;whiteSpace=wrap;rounded=1;shadow=0;fontSize=30;fontColor=#FFFFFF;fontStyle=1" parent="1" vertex="1">
          <mxGeometry x="734" y="866" width="40" height="35" as="geometry" />
        </mxCell>
        <mxCell id="23046e2b9bb16c14-97" value="VHD" style="shadow=0;html=1;strokeColor=none;fillColor=#FFFFFF;labelPosition=center;verticalLabelPosition=top;verticalAlign=bottom;shape=mxgraph.azure.vhd;rounded=0;fontSize=10;fontColor=#FFFFFF;align=center;" parent="1" vertex="1">
          <mxGeometry x="774" y="858" width="40" height="50" as="geometry" />
        </mxCell>
        <mxCell id="23046e2b9bb16c14-98" value="3rd Party&lt;div&gt;Integration&lt;/div&gt;" style="shadow=0;html=1;strokeColor=none;fillColor=#FFFFFF;labelPosition=center;verticalLabelPosition=top;verticalAlign=bottom;shape=mxgraph.office.communications.3rd_party_integration;rounded=0;fontSize=10;fontColor=#FFFFFF;align=center;" parent="1" vertex="1">
          <mxGeometry x="854" y="856" width="54" height="55" as="geometry" />
        </mxCell>
        <mxCell id="23046e2b9bb16c14-99" value="+" style="text;html=1;strokeColor=none;fillColor=none;align=center;verticalAlign=middle;whiteSpace=wrap;rounded=1;shadow=0;fontSize=30;fontColor=#FFFFFF;fontStyle=1" parent="1" vertex="1">
          <mxGeometry x="814" y="866" width="40" height="35" as="geometry" />
        </mxCell>
        <mxCell id="23046e2b9bb16c14-100" value="+" style="text;html=1;strokeColor=none;fillColor=none;align=center;verticalAlign=middle;whiteSpace=wrap;rounded=1;shadow=0;fontSize=30;fontColor=#FFFFFF;fontStyle=1" parent="1" vertex="1">
          <mxGeometry x="908" y="866" width="40" height="35" as="geometry" />
        </mxCell>
        <mxCell id="23046e2b9bb16c14-101" value="Data Migration&lt;div&gt;Wizard&lt;/div&gt;" style="shadow=0;html=1;strokeColor=none;shape=mxgraph.mscae.intune.data_migration_wizard;fillColor=#FFFFFF;rounded=0;fontSize=10;fontColor=#FFFFFF;align=center;verticalAlign=bottom;labelPosition=center;verticalLabelPosition=top;" parent="1" vertex="1">
          <mxGeometry x="948" y="859" width="50" height="48" as="geometry" />
        </mxCell>
        <mxCell id="23046e2b9bb16c14-102" value="VM Feature" style="shadow=0;html=1;strokeColor=none;fillColor=#FFFFFF;labelPosition=center;verticalLabelPosition=top;verticalAlign=bottom;shape=mxgraph.azure.virtual_machine_feature;rounded=0;fontSize=10;fontColor=#FFFFFF;align=center;" parent="1" vertex="1">
          <mxGeometry x="1086" y="861" width="50" height="45" as="geometry" />
        </mxCell>
        <mxCell id="23046e2b9bb16c14-103" value="" style="line;strokeWidth=2;direction=south;html=1;rounded=0;shadow=0;fillColor=none;fontSize=30;fontColor=#FFFFFF;align=center;strokeColor=#FFFFFF;" parent="1" vertex="1">
          <mxGeometry x="366" y="820" width="10" height="102" as="geometry" />
        </mxCell>
        <mxCell id="23046e2b9bb16c14-104" value="" style="line;strokeWidth=2;direction=south;html=1;rounded=0;shadow=0;fillColor=none;fontSize=30;fontColor=#FFFFFF;align=center;strokeColor=#FFFFFF;" parent="1" vertex="1">
          <mxGeometry x="666" y="820" width="10" height="102" as="geometry" />
        </mxCell>
        <mxCell id="23046e2b9bb16c14-105" value="" style="line;strokeWidth=2;direction=south;html=1;rounded=0;shadow=0;fillColor=none;fontSize=30;fontColor=#FFFFFF;align=center;strokeColor=#FFFFFF;" parent="1" vertex="1">
          <mxGeometry x="1066" y="820" width="10" height="102" as="geometry" />
        </mxCell>
        <mxCell id="23046e2b9bb16c14-106" value="+" style="text;html=1;strokeColor=none;fillColor=none;align=center;verticalAlign=middle;whiteSpace=wrap;rounded=1;shadow=0;fontSize=30;fontColor=#FFFFFF;fontStyle=1" parent="1" vertex="1">
          <mxGeometry x="1136" y="866" width="40" height="35" as="geometry" />
        </mxCell>
        <mxCell id="23046e2b9bb16c14-107" value="Azure&lt;div&gt;Website&lt;/div&gt;" style="verticalLabelPosition=top;html=1;verticalAlign=bottom;strokeColor=none;fillColor=#FFFFFF;shape=mxgraph.azure.azure_website;rounded=0;shadow=0;fontSize=10;fontColor=#FFFFFF;align=center;labelPosition=center;" parent="1" vertex="1">
          <mxGeometry x="1176" y="858" width="50" height="50" as="geometry" />
        </mxCell>
        <mxCell id="23046e2b9bb16c14-108" value="+" style="text;html=1;strokeColor=none;fillColor=none;align=center;verticalAlign=middle;whiteSpace=wrap;rounded=1;shadow=0;fontSize=30;fontColor=#FFFFFF;fontStyle=1" parent="1" vertex="1">
          <mxGeometry x="1226" y="866" width="40" height="35" as="geometry" />
        </mxCell>
        <mxCell id="23046e2b9bb16c14-109" value="MySQL&lt;div&gt;Database&lt;/div&gt;" style="verticalLabelPosition=top;html=1;verticalAlign=bottom;strokeColor=none;fillColor=#FFFFFF;shape=mxgraph.azure.mysql_database;rounded=0;shadow=0;fontSize=10;fontColor=#FFFFFF;align=center;labelPosition=center;" parent="1" vertex="1">
          <mxGeometry x="1266" y="859" width="37.5" height="50" as="geometry" />
        </mxCell>
        <mxCell id="23046e2b9bb16c14-110" value="+" style="text;html=1;strokeColor=none;fillColor=none;align=center;verticalAlign=middle;whiteSpace=wrap;rounded=1;shadow=0;fontSize=30;fontColor=#FFFFFF;fontStyle=1" parent="1" vertex="1">
          <mxGeometry x="1304" y="866" width="40" height="35" as="geometry" />
        </mxCell>
        <mxCell id="23046e2b9bb16c14-111" value="Azure&lt;div&gt;Storage&lt;/div&gt;" style="shadow=0;html=1;strokeColor=none;labelPosition=center;verticalLabelPosition=top;verticalAlign=bottom;shape=mxgraph.mscae.cloud.azure_storage;fillColor=#FFFFFF;rounded=0;fontSize=10;fontColor=#FFFFFF;align=center;" parent="1" vertex="1">
          <mxGeometry x="1344" y="862" width="50" height="43" as="geometry" />
        </mxCell>
        <mxCell id="23046e2b9bb16c14-113" value="Title" style="text;strokeColor=none;fillColor=none;html=1;fontSize=24;fontStyle=1;verticalAlign=middle;align=center;rounded=0;shadow=0;fontColor=#FFFFFF;" parent="1" vertex="1">
          <mxGeometry x="120" y="40" width="1510" height="40" as="geometry" />
        </mxCell>
        <mxCell id="23046e2b9bb16c14-114" value="Subtitle" style="text;html=1;strokeColor=none;fillColor=none;align=center;verticalAlign=middle;whiteSpace=wrap;rounded=0;shadow=0;fontSize=10;fontColor=#009BFF;" parent="1" vertex="1">
          <mxGeometry x="114" y="90" width="1526" height="20" as="geometry" />
        </mxCell>
        <mxCell id="23046e2b9bb16c14-115" value="&lt;h1&gt;Heading&lt;/h1&gt;&lt;p&gt;Lorem ipsum dolor sit amet, consectetur adipisicing elit, sed do eiusmod tempor incididunt ut labore et dolore magna aliqua.&lt;/p&gt;" style="text;html=1;strokeColor=none;fillColor=none;spacing=5;spacingTop=-20;whiteSpace=wrap;overflow=hidden;rounded=0;shadow=0;fontSize=10;fontColor=#FFFFFF;align=left;" parent="1" vertex="1">
          <mxGeometry x="323" y="952" width="1041" height="70" as="geometry" />
        </mxCell>
        <mxCell id="23046e2b9bb16c14-118" style="edgeStyle=orthogonalEdgeStyle;rounded=0;elbow=vertical;html=1;startArrow=none;startFill=0;startSize=10;endArrow=none;endFill=0;endSize=10;strokeColor=#FFFFFF;strokeWidth=3;fontSize=20;fontColor=#FFFFFF;entryX=-0.009;entryY=0.502;entryPerimeter=0;" parent="1" source="23046e2b9bb16c14-68" target="23046e2b9bb16c14-66" edge="1">
          <mxGeometry relative="1" as="geometry">
            <mxPoint x="1346.3333333333333" y="566.6666666666666" as="targetPoint" />
            <mxPoint x="1371" y="658" as="sourcePoint" />
            <Array as="points">
              <mxPoint x="1326" y="673" />
              <mxPoint x="1326" y="475" />
            </Array>
          </mxGeometry>
        </mxCell>
      </root>
    </mxGraphModel>
  </diagram>
  <diagram id="36-U0f3yAgc2WfeLvfvM" name="Document Storage">
    <mxGraphModel dx="1213" dy="590" grid="1" gridSize="10" guides="1" tooltips="1" connect="1" arrows="1" fold="1" page="1" pageScale="1" pageWidth="850" pageHeight="1100" math="0" shadow="0">
      <root>
        <mxCell id="bDUzA2bUJVOD7ySQ1u_B-0" />
        <mxCell id="bDUzA2bUJVOD7ySQ1u_B-1" parent="bDUzA2bUJVOD7ySQ1u_B-0" />
        <mxCell id="bDUzA2bUJVOD7ySQ1u_B-2" value="[documentstorage]" style="shape=image;verticalLabelPosition=bottom;labelBackgroundColor=#ffffff;verticalAlign=top;aspect=fixed;imageAspect=0;image=data:image/svg+xml,PHN2ZyB4bWxuczpkYz0iaHR0cDovL3B1cmwub3JnL2RjL2VsZW1lbnRzLzEuMS8iIHhtbG5zOmNjPSJodHRwOi8vY3JlYXRpdmVjb21tb25zLm9yZy9ucyMiIHhtbG5zOnJkZj0iaHR0cDovL3d3dy53My5vcmcvMTk5OS8wMi8yMi1yZGYtc3ludGF4LW5zIyIgeG1sbnM6c3ZnPSJodHRwOi8vd3d3LnczLm9yZy8yMDAwL3N2ZyIgeG1sbnM9Imh0dHA6Ly93d3cudzMub3JnLzIwMDAvc3ZnIiB4bWxuczpzb2RpcG9kaT0iaHR0cDovL3NvZGlwb2RpLnNvdXJjZWZvcmdlLm5ldC9EVEQvc29kaXBvZGktMC5kdGQiIHhtbG5zOmlua3NjYXBlPSJodHRwOi8vd3d3Lmlua3NjYXBlLm9yZy9uYW1lc3BhY2VzL2lua3NjYXBlIiB2ZXJzaW9uPSIxLjEiIGlkPSJzdmcxMDQ1NzIiIGlua3NjYXBlOnZlcnNpb249IjAuOTIuMyAoMjQwNTU0NiwgMjAxOC0wMy0xMSkiIHNvZGlwb2RpOmRvY25hbWU9InNxbC5zdmciIHg9IjBweCIgeT0iMHB4IiB2aWV3Qm94PSIwIDAgNDYuMDMgNjEuMDIiIHhtbDpzcGFjZT0icHJlc2VydmUiIHdpZHRoPSI0Ni4wMjk5OTkiIGhlaWdodD0iNjEuMDIiPjxtZXRhZGF0YSBpZD0ibWV0YWRhdGExMDQ4Ij48cmRmOlJERj48Y2M6V29yayByZGY6YWJvdXQ9IiI+PGRjOmZvcm1hdD5pbWFnZS9zdmcreG1sPC9kYzpmb3JtYXQ+PGRjOnR5cGUgcmRmOnJlc291cmNlPSJodHRwOi8vcHVybC5vcmcvZGMvZGNtaXR5cGUvU3RpbGxJbWFnZSIvPjxkYzp0aXRsZS8+PC9jYzpXb3JrPjwvcmRmOlJERj48L21ldGFkYXRhPjxkZWZzIGlkPSJkZWZzMTA0NiI+JiN4YTsJJiN4YTsmI3hhOwkmI3hhOyYjeGE7CSYjeGE7JiN4YTsJJiN4YTsmI3hhOwkmI3hhOyYjeGE7CSYjeGE7JiN4YTsJJiN4YTsmI3hhOwkmI3hhOyYjeGE7CSYjeGE7JiN4YTsJCSYjeGE7CSYjeGE7CQkmI3hhOwkmI3hhOwkJJiN4YTsJJiN4YTsJCSYjeGE7CSYjeGE7CQkmI3hhOwkmI3hhOwkJJiN4YTsJJiN4YTsJCSYjeGE7CSYjeGE7CQkmI3hhOwk8L2RlZnM+JiN4YTs8ZmlsdGVyIGlkPSJmaWx0ZXJfMiI+JiN4YTsJPGZlR2F1c3NpYW5CbHVyIGlkPSJmZUdhdXNzaWFuQmx1cjEwNDQ4OSIgc3RkRGV2aWF0aW9uPSIyIi8+JiN4YTs8L2ZpbHRlcj4mI3hhOzxzb2RpcG9kaTpuYW1lZHZpZXcgYm9yZGVyY29sb3I9IiM2NjY2NjYiIGJvcmRlcm9wYWNpdHk9IjEiIGZpdC1tYXJnaW4tYm90dG9tPSIwIiBmaXQtbWFyZ2luLWxlZnQ9IjAiIGZpdC1tYXJnaW4tcmlnaHQ9IjAiIGZpdC1tYXJnaW4tdG9wPSIwIiBncmlkdG9sZXJhbmNlPSIxMCIgZ3VpZGV0b2xlcmFuY2U9IjEwIiBpZD0ibmFtZWR2aWV3MTA0NTc0IiBpbmtzY2FwZTpjdXJyZW50LWxheWVyPSJzdmcxMDQ1NzIiIGlua3NjYXBlOmN4PSIwLjI3NDc3MzkyIiBpbmtzY2FwZTpjeT0iMjcuOTI1ODA5IiBpbmtzY2FwZTpwYWdlb3BhY2l0eT0iMCIgaW5rc2NhcGU6cGFnZXNoYWRvdz0iMiIgaW5rc2NhcGU6d2luZG93LWhlaWdodD0iMTAxNyIgaW5rc2NhcGU6d2luZG93LW1heGltaXplZD0iMSIgaW5rc2NhcGU6d2luZG93LXdpZHRoPSIxOTIwIiBpbmtzY2FwZTp3aW5kb3cteD0iLTgiIGlua3NjYXBlOndpbmRvdy15PSItOCIgaW5rc2NhcGU6em9vbT0iNy42MDUyNjMyIiBvYmplY3R0b2xlcmFuY2U9IjEwIiBwYWdlY29sb3I9IiNmZmZmZmYiIHNob3dncmlkPSJmYWxzZSI+JiN4YTsJPC9zb2RpcG9kaTpuYW1lZHZpZXc+JiN4YTsmI3hhOzxwYXRoIGlkPSJwYXRoMTA0NTAyIiBpbmtzY2FwZTpjb25uZWN0b3ItY3VydmF0dXJlPSIwIiBzdHlsZT0iZmlsbDojMDA3MmM2IiBkPSJtIDAsOC4zNCB2IDQ0LjM0IGMgMCw0LjYxIDEwLjMxLDguMzQgMjMuMDIsOC4zNCBWIDguMzQgWiIvPiYjeGE7JiN4YTs8cGF0aCBpZD0icGF0aDEwNDUxMCIgaW5rc2NhcGU6Y29ubmVjdG9yLWN1cnZhdHVyZT0iMCIgc3R5bGU9ImZpbGw6IzAwNzJjNiIgZD0ibSAyMi43LDYxLjAyIGggMC4zMiBjIDEyLjcxLDAgMjMuMDEsLTMuNzMgMjMuMDEsLTguMzQgViA4LjM0IEggMjIuNyBaIi8+JiN4YTsmI3hhOzxwYXRoIGlkPSJwYXRoMTA0NTE4IiBpbmtzY2FwZTpjb25uZWN0b3ItY3VydmF0dXJlPSIwIiBzdHlsZT0iZmlsbDojZmZmZmZmO2ZpbGwtb3BhY2l0eTowLjE1IiBkPSJtIDIyLjcsNjEuMDIgaCAwLjMyIGMgMTIuNzEsMCAyMy4wMSwtMy43MyAyMy4wMSwtOC4zNCBWIDguMzQgSCAyMi43IFoiLz4mI3hhOyYjeGE7PHBhdGggaWQ9InBhdGgxMDQ1MjYiIGlua3NjYXBlOmNvbm5lY3Rvci1jdXJ2YXR1cmU9IjAiIHN0eWxlPSJmaWxsOiNmZmZmZmYiIGQ9Im0gNDYuMDMsOC4zMyBjIDAsNC42MSAtMTAuMyw4LjM0IC0yMy4wMSw4LjM0IEMgMTAuMzEsMTYuNjcgMCwxMi45NCAwLDguMzMgMCwzLjczIDEwLjMxLDAgMjMuMDIsMCAzNS43MywwIDQ2LjAzLDMuNzMgNDYuMDMsOC4zMyBaIi8+JiN4YTsmI3hhOzxwYXRoIGlkPSJwYXRoMTA0NTM0IiBpbmtzY2FwZTpjb25uZWN0b3ItY3VydmF0dXJlPSIwIiBzdHlsZT0iZmlsbDojN2ZiYTAwIiBkPSJtIDQxLjMyLDcuODUgYyAwLDMuMDQgLTguMTksNS41IC0xOC4zMSw1LjUgLTEwLjExLDAgLTE4LjMxLC0yLjQ2IC0xOC4zMSwtNS41IDAsLTMuMDQgOC4yLC01LjUgMTguMzEsLTUuNSAxMC4xMiwwIDE4LjMxLDIuNDYgMTguMzEsNS41IHoiLz4mI3hhOyYjeGE7PHBhdGggaWQ9InBhdGgxMDQ1NDIiIGlua3NjYXBlOmNvbm5lY3Rvci1jdXJ2YXR1cmU9IjAiIHN0eWxlPSJmaWxsOiNiOGQ0MzIiIGQ9Im0gMzcuNSwxMS4yMSBjIDIuMzksLTAuOTMgMy44MywtMi4wOSAzLjgzLC0zLjM2IDAsLTMuMDQgLTguMTksLTUuNSAtMTguMzEsLTUuNSAtMTAuMTEsMCAtMTguMzEsMi40NiAtMTguMzEsNS41IDAsMS4yNyAxLjQ0LDIuNDMgMy44NCwzLjM2IDMuMzUsLTEuMyA4LjU4LC0yLjE0IDE0LjQ3LC0yLjE0IDUuOSwwIDExLjEzLDAuODQgMTQuNDgsMi4xNCB6Ii8+JiN4YTsmI3hhOzxwYXRoIGlkPSJwYXRoMTA0NTUwIiBpbmtzY2FwZTpjb25uZWN0b3ItY3VydmF0dXJlPSIwIiBzdHlsZT0iZmlsbDojZmZmZmZmIiBkPSJtIDE1LjcxLDM5LjExIGMgMCwxLjM4IC0wLjUsMi40NSAtMS41LDMuMjEgLTEsMC43NSAtMi4zOCwxLjEzIC00LjE0LDEuMTMgLTEuNSwwIC0yLjc1LC0wLjI3IC0zLjc2LC0wLjgxIFYgMzkuNCBjIDEuMTYsMC45OCAyLjQ0LDEuNDggMy44NCwxLjQ4IDAuNjcsMCAxLjIsLTAuMTQgMS41NiwtMC40MSAwLjM3LC0wLjI3IDAuNTYsLTAuNjMgMC41NiwtMS4wNyAwLC0wLjQ0IC0wLjE4LC0wLjgyIC0wLjUzLC0xLjE1IEMgMTEuMzgsMzcuOTMgMTAuNjYsMzcuNTEgOS41NywzNyA3LjM2LDM1Ljk2IDYuMjUsMzQuNTQgNi4yNSwzMi43NCBjIDAsLTEuMyAwLjQ4LC0yLjM1IDEuNDUsLTMuMTMgMC45NiwtMC43OSAyLjI1LC0xLjE4IDMuODUsLTEuMTggMS40MiwwIDIuNTksMC4xOCAzLjUyLDAuNTUgdiAzLjAzIEMgMTQuMDksMzEuMzQgMTIuOTgsMzEgMTEuNzMsMzEgYyAtMC42MywwIC0xLjEyLDAuMTMgLTEuNDksMC40IC0wLjM2LDAuMjcgLTAuNTQsMC42MiAtMC41NCwxLjA3IDAsMC40NiAwLjE0LDAuODMgMC40NCwxLjEzIDAuMjksMC4yOSAwLjg5LDAuNjUgMS44LDEuMDkgMS4zNiwwLjY0IDIuMzMsMS4yOSAyLjkxLDEuOTUgMC41NywwLjY2IDAuODYsMS40OSAwLjg2LDIuNDcgeiIvPiYjeGE7JiN4YTs8cGF0aCBpZD0icGF0aDEwNDU1OCIgaW5rc2NhcGU6Y29ubmVjdG9yLWN1cnZhdHVyZT0iMCIgc3R5bGU9ImZpbGw6I2ZmZmZmZiIgZD0ibSAzMS4zMywzNS44NCBjIDAsMS43MSAtMC4zOSwzLjE5IC0xLjE2LDQuNDUgLTAuNzgsMS4yNSAtMS44NywyLjEzIC0zLjI4LDIuNjQgbCA0LjIxLDMuOSBoIC00LjI1IGwgLTMuMDEsLTMuMzcgYyAtMS4yOSwtMC4wNSAtMi40NiwtMC4zOSAtMy40OSwtMS4wMyAtMS4wNCwtMC42MyAtMS44NCwtMS41IC0yLjQsLTIuNjEgLTAuNTcsLTEuMSAtMC44NSwtMi4zMyAtMC44NSwtMy42OSAwLC0xLjUgMC4zMSwtMi44NSAwLjkyLC00LjAyIDAuNjEsLTEuMTggMS40NywtMi4wOSAyLjU3LC0yLjcyIDEuMTEsLTAuNjQgMi4zOCwtMC45NiAzLjgxLC0wLjk2IDEuMzQsMCAyLjU0LDAuMzEgMy41OSwwLjkzIDEuMDYsMC42MSAxLjg4LDEuNDggMi40NywyLjYyIDAuNTgsMS4xMyAwLjg3LDIuNDIgMC44NywzLjg2IHogbSAtMy40NCwwLjE4IGMgMCwtMS40NyAtMC4zMiwtMi42MyAtMC45NiwtMy40OSAtMC42NSwtMC44NSAtMS41MiwtMS4yOCAtMi42NCwtMS4yOCAtMS4xMywwIC0yLjA0LDAuNDMgLTIuNzIsMS4yOSAtMC42OCwwLjg1IC0xLjAzLDEuOTkgLTEuMDMsMy40MiAwLDEuNDIgMC4zNCwyLjU1IDEuMDEsMy40IDAuNjcsMC44NCAxLjU1LDEuMjcgMi42NiwxLjI3IDEuMTMsMCAyLjAyLC0wLjQxIDIuNjgsLTEuMjMgMC42NywtMC44MiAxLC0xLjk1IDEsLTMuMzggeiIvPiYjeGE7JiN4YTs8cGF0aCBpZD0icGF0aDEwNDU2NiIgaW5rc2NhcGU6Y29ubmVjdG9yLWN1cnZhdHVyZT0iMCIgc3R5bGU9ImZpbGw6I2ZmZmZmZiIgZD0iTSA0Mi4zOSw0My4yIEggMzMuNzQgViAyOC42NyBoIDMuMjcgdiAxMS44OCBoIDUuMzggeiIvPiYjeGE7PC9zdmc+;" vertex="1" parent="bDUzA2bUJVOD7ySQ1u_B-1">
          <mxGeometry x="480" y="420" width="46" height="61" as="geometry" />
        </mxCell>
        <mxCell id="bDUzA2bUJVOD7ySQ1u_B-4" value="Blob Storage" style="aspect=fixed;html=1;points=[];align=center;image;fontSize=12;image=img/lib/mscae/BlobBlock.svg;" vertex="1" parent="bDUzA2bUJVOD7ySQ1u_B-1">
          <mxGeometry x="600" y="429.5" width="50" height="42" as="geometry" />
        </mxCell>
        <mxCell id="bDUzA2bUJVOD7ySQ1u_B-8" value="" style="group" vertex="1" connectable="0" parent="bDUzA2bUJVOD7ySQ1u_B-1">
          <mxGeometry x="600" y="530" width="47" height="55" as="geometry" />
        </mxCell>
        <mxCell id="bDUzA2bUJVOD7ySQ1u_B-5" value="" style="shape=image;verticalLabelPosition=bottom;labelBackgroundColor=#ffffff;verticalAlign=top;aspect=fixed;imageAspect=0;image=data:image/svg+xml,PHN2ZyB4bWxuczpjYz0iaHR0cDovL2NyZWF0aXZlY29tbW9ucy5vcmcvbnMjIiB4bWxuczpkYz0iaHR0cDovL3B1cmwub3JnL2RjL2VsZW1lbnRzLzEuMS8iIHhtbG5zOmlua3NjYXBlPSJodHRwOi8vd3d3Lmlua3NjYXBlLm9yZy9uYW1lc3BhY2VzL2lua3NjYXBlIiB4bWxuczpyZGY9Imh0dHA6Ly93d3cudzMub3JnLzE5OTkvMDIvMjItcmRmLXN5bnRheC1ucyMiIHhtbG5zOnNvZGlwb2RpPSJodHRwOi8vc29kaXBvZGkuc291cmNlZm9yZ2UubmV0L0RURC9zb2RpcG9kaS0wLmR0ZCIgeG1sbnM6c3ZnPSJodHRwOi8vd3d3LnczLm9yZy8yMDAwL3N2ZyIgeG1sbnM9Imh0dHA6Ly93d3cudzMub3JnLzIwMDAvc3ZnIiB4bWxuczp4bGluaz0iaHR0cDovL3d3dy53My5vcmcvMTk5OS94bGluayIgdmVyc2lvbj0iMS4xIiBpZD0ic3ZnNTAyMzYiIGlua3NjYXBlOnZlcnNpb249IjAuOTIuMyAoMjQwNTU0NiwgMjAxOC0wMy0xMSkiIHNvZGlwb2RpOmRvY25hbWU9InBkZi5zdmciIHg9IjBweCIgeT0iMHB4IiB2aWV3Qm94PSIwIDAgMjYuOTkgMzUuMTUiIHN0eWxlPSJlbmFibGUtYmFja2dyb3VuZDpuZXcgMCAwIDI2Ljk5IDM1LjE1OyIgeG1sOnNwYWNlPSJwcmVzZXJ2ZSI+JiN4YTs8c29kaXBvZGk6bmFtZWR2aWV3IGJvcmRlcmNvbG9yPSIjNjY2NjY2IiBib3JkZXJvcGFjaXR5PSIxIiBmaXQtbWFyZ2luLWJvdHRvbT0iMCIgZml0LW1hcmdpbi1sZWZ0PSIwIiBmaXQtbWFyZ2luLXJpZ2h0PSIwIiBmaXQtbWFyZ2luLXRvcD0iMCIgZ3JpZHRvbGVyYW5jZT0iMTAiIGd1aWRldG9sZXJhbmNlPSIxMCIgaWQ9Im5hbWVkdmlldzUwMjM4IiBpbmtzY2FwZTpjdXJyZW50LWxheWVyPSJzdmc1MDIzNiIgaW5rc2NhcGU6Y3g9IjE3Ljk5NDM4NCIgaW5rc2NhcGU6Y3k9IjIzLjQzNTg1IiBpbmtzY2FwZTpwYWdlb3BhY2l0eT0iMCIgaW5rc2NhcGU6cGFnZXNoYWRvdz0iMiIgaW5rc2NhcGU6d2luZG93LWhlaWdodD0iMTAxNyIgaW5rc2NhcGU6d2luZG93LW1heGltaXplZD0iMSIgaW5rc2NhcGU6d2luZG93LXdpZHRoPSIxOTIwIiBpbmtzY2FwZTp3aW5kb3cteD0iLTgiIGlua3NjYXBlOndpbmRvdy15PSItOCIgaW5rc2NhcGU6em9vbT0iMTEuNDA2MDg5IiBvYmplY3R0b2xlcmFuY2U9IjEwIiBwYWdlY29sb3I9IiNmZmZmZmYiIHNob3dncmlkPSJmYWxzZSI+JiN4YTsJPC9zb2RpcG9kaTpuYW1lZHZpZXc+JiN4YTs8ZyBpZD0iZzUwMjM0IiB0cmFuc2Zvcm09InRyYW5zbGF0ZSgtMTAuOTI4NiwtMTAuOTMxNDM0KSI+JiN4YTsJPHRpdGxlIGlkPSJ0aXRsZTUwMTkxIj5QYWdlLTE8L3RpdGxlPiYjeGE7CTxnIGlkPSJncm91cDQyMDgtMSIgdHJhbnNmb3JtPSJ0cmFuc2xhdGUoMTAuOTI4NiwtMTAuOTI4NikiPiYjeGE7CQk8dGl0bGUgaWQ9InRpdGxlNTAxOTMiPlBERjwvdGl0bGU+JiN4YTsJCTxnIGlkPSJzaGFwZTQyMDktMiI+JiN4YTsJCQk8dGl0bGUgaWQ9InRpdGxlNTAxOTUiPlNoZWV0LjQyMDk8L3RpdGxlPiYjeGE7CQkJPHBhdGggaWQ9InBhdGg1MDE5NyIgaW5rc2NhcGU6Y29ubmVjdG9yLWN1cnZhdHVyZT0iMCIgc3R5bGU9ImZpbGw6I0U5RTlFMDsiIGQ9Ik0xOS4xNCwyMS44NkgwLjkyQzAuNDEsMjEuODYsMCwyMi4yNywwLDIzLjA3ICAgICB2MzMuMzFjMCwwLjIyLDAuNDEsMC42MywwLjkyLDAuNjNoMjUuMTVjMC41MSwwLDAuOTItMC40MSwwLjkyLTAuNjNWMzBjMC0wLjQzLTAuMDYtMC41Ny0wLjE2LTAuNjhsLTcuMy03LjMgICAgIEMxOS40MiwyMS45MiwxOS4yOCwyMS44NiwxOS4xNCwyMS44NnoiLz4mI3hhOwkJPC9nPiYjeGE7CQk8ZyBpZD0ic2hhcGU0MjEwLTQiIHRyYW5zZm9ybT0idHJhbnNsYXRlKDE5LjQ1OTEsLTI3LjYxOTMpIj4mI3hhOwkJCTx0aXRsZSBpZD0idGl0bGU1MDIwMCI+U2hlZXQuNDIxMDwvdGl0bGU+JiN4YTsJCQk8cGF0aCBpZD0icGF0aDUwMjAyIiBpbmtzY2FwZTpjb25uZWN0b3ItY3VydmF0dXJlPSIwIiBzdHlsZT0iZmlsbDojRDlEN0NBOyIgZD0iTTAsNDkuNTd2Ny40NGg3LjQ0TDAsNDkuNTd6Ii8+JiN4YTsJCTwvZz4mI3hhOwkJPGcgaWQ9InNoYXBlNDIxMS02IiB0cmFuc2Zvcm09InRyYW5zbGF0ZSg2LjgyMDcyLC0xNC4yMzQpIj4mI3hhOwkJCTx0aXRsZSBpZD0idGl0bGU1MDIwNSI+U2hlZXQuNDIxMTwvdGl0bGU+JiN4YTsJCQk8cGF0aCBpZD0icGF0aDUwMjA3IiBpbmtzY2FwZTpjb25uZWN0b3ItY3VydmF0dXJlPSIwIiBzdHlsZT0iZmlsbDojQzAwMDAwOyIgZD0iTTEuMzUsNTcuMDFjLTAuMjIsMC0wLjQzLTAuMDctMC42MS0wLjIxICAgICBjLTAuNjUtMC40OS0wLjc0LTEuMDMtMC43LTEuNGMwLjEyLTEuMDIsMS4zOC0yLjA5LDMuNzYtMy4xOGMwLjk0LTIuMDcsMS44NC00LjYyLDIuMzgtNi43NWMtMC42My0xLjM3LTEuMjQtMy4xMy0wLjgtNC4xNyAgICAgYzAuMTYtMC4zNywwLjM1LTAuNjQsMC43Mi0wLjc2YzAuMTQtMC4wNSwwLjUtMC4xMSwwLjYzLTAuMTFjMC4zMiwwLDAuNiwwLjQsMC44LDAuNjZjMC4xOCwwLjIzLDAuNiwwLjczLTAuMjQsNC4yNyAgICAgYzAuODUsMS43NCwyLjA1LDMuNTIsMy4yLDQuNzRjMC44Mi0wLjE1LDEuNTMtMC4yMiwyLjEtMC4yMmMwLjk5LDAsMS41OCwwLjIzLDEuODIsMC43YzAuMjEsMC4zOSwwLjEyLDAuODUtMC4yNCwxLjM1ICAgICBjLTAuMzUsMC40OS0wLjgzLDAuNzUtMS4zOSwwLjc1Yy0wLjc3LDAtMS42Ni0wLjQ4LTIuNjUtMS40M2MtMS43OCwwLjM3LTMuODYsMS4wMy01LjU0LDEuNzdjLTAuNTIsMS4xMS0xLjAzLDIuMDEtMS40OSwyLjY3ICAgICBDMi40NSw1Ni41OSwxLjksNTcuMDEsMS4zNSw1Ny4wMXogTTMuMDIsNTMuNzljLTEuMzQsMC43Ni0xLjg5LDEuMzctMS45MywxLjcyYzAsMC4wNi0wLjAyLDAuMjEsMC4yNywwLjQ0ICAgICBDMS40Niw1NS45MiwyLDU1LjY3LDMuMDIsNTMuNzl6IE0xMS41OCw1MWMwLjUxLDAuNCwwLjY0LDAuNiwwLjk3LDAuNmMwLjE1LDAsMC41Ny0wLjAxLDAuNzYtMC4yOCAgICAgYzAuMDktMC4xMywwLjEzLTAuMjIsMC4xNC0wLjI2Yy0wLjA3LTAuMDQtMC4xOC0wLjEzLTAuNzMtMC4xM0MxMi40LDUwLjk0LDEyLDUwLjk1LDExLjU4LDUxeiBNNi44OSw0Ni44NyAgICAgYy0wLjQ1LDEuNTUtMS4wNCwzLjIzLTEuNjgsNC43NWMxLjMxLTAuNTEsMi43NC0wLjk1LDQuMDgtMS4yN0M4LjQ0LDQ5LjM3LDcuNiw0OC4xNCw2Ljg5LDQ2Ljg3eiBNNi41MSw0MS41NiAgICAgYy0wLjA2LDAuMDItMC44NCwxLjEsMC4wNiwyLjAyQzcuMTcsNDIuMjUsNi41NCw0MS41NSw2LjUxLDQxLjU2eiIvPiYjeGE7CQk8L2c+JiN4YTsJCTxnIGlkPSJzaGFwZTQyMTItOCI+JiN4YTsJCQk8dGl0bGUgaWQ9InRpdGxlNTAyMTAiPlNoZWV0LjQyMTI8L3RpdGxlPiYjeGE7CQkJPHBhdGggaWQ9InBhdGg1MDIxMiIgaW5rc2NhcGU6Y29ubmVjdG9yLWN1cnZhdHVyZT0iMCIgc3R5bGU9ImZpbGw6I0MwMDAwMDsiIGQ9Ik0yNi4wNyw1Ny4wMUgwLjkyQzAuNDEsNTcuMDEsMCw1Ni42LDAsNTYuMDkgICAgIHYtOS43NWgyNi45OXY5Ljc1QzI2Ljk5LDU2LjYsMjYuNTgsNTcuMDEsMjYuMDcsNTcuMDF6Ii8+JiN4YTsJCTwvZz4mI3hhOwkJPGcgaWQ9Imdyb3VwNDIxMy0xMCIgdHJhbnNmb3JtPSJ0cmFuc2xhdGUoNS44MDI1NywtMS44ODMxNCkiPiYjeGE7CQkJPHRpdGxlIGlkPSJ0aXRsZTUwMjE1Ij5TaGVldC40MjEzPC90aXRsZT4mI3hhOwkJCTxnIGlkPSJzaGFwZTQyMTQtMTEiPiYjeGE7CQkJCTx0aXRsZSBpZD0idGl0bGU1MDIxNyI+U2hlZXQuNDIxNDwvdGl0bGU+JiN4YTsJCQkJPHBhdGggaWQ9InBhdGg1MDIxOSIgaW5rc2NhcGU6Y29ubmVjdG9yLWN1cnZhdHVyZT0iMCIgc3R5bGU9ImZpbGw6I0ZGRkZGRjsiIGQ9Ik0xLjAzLDU3LjAxSDB2LTYuMzNoMS44MiAgICAgIGMwLjI3LDAsMC41MywwLjA1LDAuOCwwLjEzYzAuMjYsMC4wOSwwLjUsMC4yMiwwLjcsMC4zOWMwLjIxLDAuMTcsMC4zOCwwLjM4LDAuNTEsMC42MmMwLjEzLDAuMjQsMC4xOSwwLjUyLDAuMTksMC44MiAgICAgIGMwLDAuMzItMC4wNSwwLjYxLTAuMTYsMC44N2MtMC4xMSwwLjI2LTAuMjYsMC40OC0wLjQ1LDAuNjZjLTAuMiwwLjE4LTAuNDMsMC4zMS0wLjcxLDAuNDFjLTAuMjcsMC4xLTAuNTgsMC4xNS0wLjkxLDAuMTVIMS4wMyAgICAgIFY1Ny4wMXogTTEuMDMsNTEuNDd2Mi41aDAuOTRjMC4xMywwLDAuMjUtMC4wMiwwLjM4LTAuMDZjMC4xMi0wLjA1LDAuMjMtMC4xMiwwLjM0LTAuMjFjMC4xLTAuMSwwLjE4LTAuMjQsMC4yNS0wLjQxICAgICAgQzMsNTMuMTEsMy4wMyw1Mi45LDMuMDMsNTIuNjRjMC0wLjEtMC4wMi0wLjIyLTAuMDQtMC4zNmMtMC4wMy0wLjEzLTAuMDktMC4yNi0wLjE4LTAuMzhjLTAuMDktMC4xMi0wLjIxLTAuMjMtMC4zNy0wLjMxICAgICAgYy0wLjE2LTAuMDgtMC4zNy0wLjEyLTAuNjQtMC4xMkwxLjAzLDUxLjQ3eiIvPiYjeGE7CQkJPC9nPiYjeGE7CQkJPGcgaWQ9InNoYXBlNDIxNS0xMyIgdHJhbnNmb3JtPSJ0cmFuc2xhdGUoNS4yMzUxMikiPiYjeGE7CQkJCTx0aXRsZSBpZD0idGl0bGU1MDIyMiI+U2hlZXQuNDIxNTwvdGl0bGU+JiN4YTsJCQkJPHBhdGggaWQ9InBhdGg1MDIyNCIgaW5rc2NhcGU6Y29ubmVjdG9yLWN1cnZhdHVyZT0iMCIgc3R5bGU9ImZpbGw6I0ZGRkZGRjsiIGQ9Ik01LjExLDUzLjY3YzAsMC41Mi0wLjA2LDAuOTctMC4xNywxLjM0ICAgICAgYy0wLjExLDAuMzYtMC4yNSwwLjY3LTAuNDMsMC45MmMtMC4xNywwLjI1LTAuMzYsMC40NS0wLjU4LDAuNTljLTAuMjEsMC4xNC0wLjQyLDAuMjUtMC42MiwwLjMyYy0wLjIsMC4wNy0wLjM4LDAuMTItMC41NSwwLjE0ICAgICAgQzIuNiw1NywyLjQ3LDU3LjAxLDIuMzksNTcuMDFIMHYtNi4zM2gxLjkxYzAuNTMsMCwxLDAuMDksMS40LDAuMjZzMC43NCwwLjM5LDEsMC42N2MwLjI3LDAuMjgsMC40NywwLjYsMC42LDAuOTYgICAgICBTNS4xMSw1My4yOSw1LjExLDUzLjY3eiBNMi4wNSw1Ni4yNWMwLjcsMCwxLjItMC4yMiwxLjUxLTAuNjdjMC4zMS0wLjQ0LDAuNDYtMS4wOSwwLjQ2LTEuOTNjMC0wLjI3LTAuMDMtMC41My0wLjA5LTAuNzkgICAgICBjLTAuMDYtMC4yNS0wLjE4LTAuNDktMC4zNi0wLjdjLTAuMTgtMC4yLTAuNDMtMC4zNy0wLjc0LTAuNXMtMC43MS0wLjE5LTEuMi0wLjE5aC0wLjZ2NC43OEgyLjA1eiIvPiYjeGE7CQkJPC9nPiYjeGE7CQkJPGcgaWQ9InNoYXBlNDIxNi0xNSIgdHJhbnNmb3JtPSJ0cmFuc2xhdGUoMTEuODM0OSkiPiYjeGE7CQkJCTx0aXRsZSBpZD0idGl0bGU1MDIyNyI+U2hlZXQuNDIxNjwvdGl0bGU+JiN4YTsJCQkJPHBhdGggaWQ9InBhdGg1MDIyOSIgaW5rc2NhcGU6Y29ubmVjdG9yLWN1cnZhdHVyZT0iMCIgc3R5bGU9ImZpbGw6I0ZGRkZGRjsiIGQ9Ik0xLjA1LDUxLjQ3djEuOTloMi42NHYwLjdIMS4wNXYyLjg1SDB2LTYuMzMgICAgICBoMy45NnYwLjc5SDEuMDV6Ii8+JiN4YTsJCQk8L2c+JiN4YTsJCTwvZz4mI3hhOwk8L2c+JiN4YTs8L2c+JiN4YTs8L3N2Zz4=;" vertex="1" parent="bDUzA2bUJVOD7ySQ1u_B-8">
          <mxGeometry width="27" height="35" as="geometry" />
        </mxCell>
        <mxCell id="bDUzA2bUJVOD7ySQ1u_B-6" value="" style="shape=image;verticalLabelPosition=bottom;labelBackgroundColor=#ffffff;verticalAlign=top;aspect=fixed;imageAspect=0;image=data:image/svg+xml,PHN2ZyB4bWxuczpjYz0iaHR0cDovL2NyZWF0aXZlY29tbW9ucy5vcmcvbnMjIiB4bWxuczpkYz0iaHR0cDovL3B1cmwub3JnL2RjL2VsZW1lbnRzLzEuMS8iIHhtbG5zOmlua3NjYXBlPSJodHRwOi8vd3d3Lmlua3NjYXBlLm9yZy9uYW1lc3BhY2VzL2lua3NjYXBlIiB4bWxuczpyZGY9Imh0dHA6Ly93d3cudzMub3JnLzE5OTkvMDIvMjItcmRmLXN5bnRheC1ucyMiIHhtbG5zOnNvZGlwb2RpPSJodHRwOi8vc29kaXBvZGkuc291cmNlZm9yZ2UubmV0L0RURC9zb2RpcG9kaS0wLmR0ZCIgeG1sbnM6c3ZnPSJodHRwOi8vd3d3LnczLm9yZy8yMDAwL3N2ZyIgeG1sbnM9Imh0dHA6Ly93d3cudzMub3JnLzIwMDAvc3ZnIiB4bWxuczp4bGluaz0iaHR0cDovL3d3dy53My5vcmcvMTk5OS94bGluayIgdmVyc2lvbj0iMS4xIiBpZD0ic3ZnNTAyMzYiIGlua3NjYXBlOnZlcnNpb249IjAuOTIuMyAoMjQwNTU0NiwgMjAxOC0wMy0xMSkiIHNvZGlwb2RpOmRvY25hbWU9InBkZi5zdmciIHg9IjBweCIgeT0iMHB4IiB2aWV3Qm94PSIwIDAgMjYuOTkgMzUuMTUiIHN0eWxlPSJlbmFibGUtYmFja2dyb3VuZDpuZXcgMCAwIDI2Ljk5IDM1LjE1OyIgeG1sOnNwYWNlPSJwcmVzZXJ2ZSI+JiN4YTs8c29kaXBvZGk6bmFtZWR2aWV3IGJvcmRlcmNvbG9yPSIjNjY2NjY2IiBib3JkZXJvcGFjaXR5PSIxIiBmaXQtbWFyZ2luLWJvdHRvbT0iMCIgZml0LW1hcmdpbi1sZWZ0PSIwIiBmaXQtbWFyZ2luLXJpZ2h0PSIwIiBmaXQtbWFyZ2luLXRvcD0iMCIgZ3JpZHRvbGVyYW5jZT0iMTAiIGd1aWRldG9sZXJhbmNlPSIxMCIgaWQ9Im5hbWVkdmlldzUwMjM4IiBpbmtzY2FwZTpjdXJyZW50LWxheWVyPSJzdmc1MDIzNiIgaW5rc2NhcGU6Y3g9IjE3Ljk5NDM4NCIgaW5rc2NhcGU6Y3k9IjIzLjQzNTg1IiBpbmtzY2FwZTpwYWdlb3BhY2l0eT0iMCIgaW5rc2NhcGU6cGFnZXNoYWRvdz0iMiIgaW5rc2NhcGU6d2luZG93LWhlaWdodD0iMTAxNyIgaW5rc2NhcGU6d2luZG93LW1heGltaXplZD0iMSIgaW5rc2NhcGU6d2luZG93LXdpZHRoPSIxOTIwIiBpbmtzY2FwZTp3aW5kb3cteD0iLTgiIGlua3NjYXBlOndpbmRvdy15PSItOCIgaW5rc2NhcGU6em9vbT0iMTEuNDA2MDg5IiBvYmplY3R0b2xlcmFuY2U9IjEwIiBwYWdlY29sb3I9IiNmZmZmZmYiIHNob3dncmlkPSJmYWxzZSI+JiN4YTsJPC9zb2RpcG9kaTpuYW1lZHZpZXc+JiN4YTs8ZyBpZD0iZzUwMjM0IiB0cmFuc2Zvcm09InRyYW5zbGF0ZSgtMTAuOTI4NiwtMTAuOTMxNDM0KSI+JiN4YTsJPHRpdGxlIGlkPSJ0aXRsZTUwMTkxIj5QYWdlLTE8L3RpdGxlPiYjeGE7CTxnIGlkPSJncm91cDQyMDgtMSIgdHJhbnNmb3JtPSJ0cmFuc2xhdGUoMTAuOTI4NiwtMTAuOTI4NikiPiYjeGE7CQk8dGl0bGUgaWQ9InRpdGxlNTAxOTMiPlBERjwvdGl0bGU+JiN4YTsJCTxnIGlkPSJzaGFwZTQyMDktMiI+JiN4YTsJCQk8dGl0bGUgaWQ9InRpdGxlNTAxOTUiPlNoZWV0LjQyMDk8L3RpdGxlPiYjeGE7CQkJPHBhdGggaWQ9InBhdGg1MDE5NyIgaW5rc2NhcGU6Y29ubmVjdG9yLWN1cnZhdHVyZT0iMCIgc3R5bGU9ImZpbGw6I0U5RTlFMDsiIGQ9Ik0xOS4xNCwyMS44NkgwLjkyQzAuNDEsMjEuODYsMCwyMi4yNywwLDIzLjA3ICAgICB2MzMuMzFjMCwwLjIyLDAuNDEsMC42MywwLjkyLDAuNjNoMjUuMTVjMC41MSwwLDAuOTItMC40MSwwLjkyLTAuNjNWMzBjMC0wLjQzLTAuMDYtMC41Ny0wLjE2LTAuNjhsLTcuMy03LjMgICAgIEMxOS40MiwyMS45MiwxOS4yOCwyMS44NiwxOS4xNCwyMS44NnoiLz4mI3hhOwkJPC9nPiYjeGE7CQk8ZyBpZD0ic2hhcGU0MjEwLTQiIHRyYW5zZm9ybT0idHJhbnNsYXRlKDE5LjQ1OTEsLTI3LjYxOTMpIj4mI3hhOwkJCTx0aXRsZSBpZD0idGl0bGU1MDIwMCI+U2hlZXQuNDIxMDwvdGl0bGU+JiN4YTsJCQk8cGF0aCBpZD0icGF0aDUwMjAyIiBpbmtzY2FwZTpjb25uZWN0b3ItY3VydmF0dXJlPSIwIiBzdHlsZT0iZmlsbDojRDlEN0NBOyIgZD0iTTAsNDkuNTd2Ny40NGg3LjQ0TDAsNDkuNTd6Ii8+JiN4YTsJCTwvZz4mI3hhOwkJPGcgaWQ9InNoYXBlNDIxMS02IiB0cmFuc2Zvcm09InRyYW5zbGF0ZSg2LjgyMDcyLC0xNC4yMzQpIj4mI3hhOwkJCTx0aXRsZSBpZD0idGl0bGU1MDIwNSI+U2hlZXQuNDIxMTwvdGl0bGU+JiN4YTsJCQk8cGF0aCBpZD0icGF0aDUwMjA3IiBpbmtzY2FwZTpjb25uZWN0b3ItY3VydmF0dXJlPSIwIiBzdHlsZT0iZmlsbDojQzAwMDAwOyIgZD0iTTEuMzUsNTcuMDFjLTAuMjIsMC0wLjQzLTAuMDctMC42MS0wLjIxICAgICBjLTAuNjUtMC40OS0wLjc0LTEuMDMtMC43LTEuNGMwLjEyLTEuMDIsMS4zOC0yLjA5LDMuNzYtMy4xOGMwLjk0LTIuMDcsMS44NC00LjYyLDIuMzgtNi43NWMtMC42My0xLjM3LTEuMjQtMy4xMy0wLjgtNC4xNyAgICAgYzAuMTYtMC4zNywwLjM1LTAuNjQsMC43Mi0wLjc2YzAuMTQtMC4wNSwwLjUtMC4xMSwwLjYzLTAuMTFjMC4zMiwwLDAuNiwwLjQsMC44LDAuNjZjMC4xOCwwLjIzLDAuNiwwLjczLTAuMjQsNC4yNyAgICAgYzAuODUsMS43NCwyLjA1LDMuNTIsMy4yLDQuNzRjMC44Mi0wLjE1LDEuNTMtMC4yMiwyLjEtMC4yMmMwLjk5LDAsMS41OCwwLjIzLDEuODIsMC43YzAuMjEsMC4zOSwwLjEyLDAuODUtMC4yNCwxLjM1ICAgICBjLTAuMzUsMC40OS0wLjgzLDAuNzUtMS4zOSwwLjc1Yy0wLjc3LDAtMS42Ni0wLjQ4LTIuNjUtMS40M2MtMS43OCwwLjM3LTMuODYsMS4wMy01LjU0LDEuNzdjLTAuNTIsMS4xMS0xLjAzLDIuMDEtMS40OSwyLjY3ICAgICBDMi40NSw1Ni41OSwxLjksNTcuMDEsMS4zNSw1Ny4wMXogTTMuMDIsNTMuNzljLTEuMzQsMC43Ni0xLjg5LDEuMzctMS45MywxLjcyYzAsMC4wNi0wLjAyLDAuMjEsMC4yNywwLjQ0ICAgICBDMS40Niw1NS45MiwyLDU1LjY3LDMuMDIsNTMuNzl6IE0xMS41OCw1MWMwLjUxLDAuNCwwLjY0LDAuNiwwLjk3LDAuNmMwLjE1LDAsMC41Ny0wLjAxLDAuNzYtMC4yOCAgICAgYzAuMDktMC4xMywwLjEzLTAuMjIsMC4xNC0wLjI2Yy0wLjA3LTAuMDQtMC4xOC0wLjEzLTAuNzMtMC4xM0MxMi40LDUwLjk0LDEyLDUwLjk1LDExLjU4LDUxeiBNNi44OSw0Ni44NyAgICAgYy0wLjQ1LDEuNTUtMS4wNCwzLjIzLTEuNjgsNC43NWMxLjMxLTAuNTEsMi43NC0wLjk1LDQuMDgtMS4yN0M4LjQ0LDQ5LjM3LDcuNiw0OC4xNCw2Ljg5LDQ2Ljg3eiBNNi41MSw0MS41NiAgICAgYy0wLjA2LDAuMDItMC44NCwxLjEsMC4wNiwyLjAyQzcuMTcsNDIuMjUsNi41NCw0MS41NSw2LjUxLDQxLjU2eiIvPiYjeGE7CQk8L2c+JiN4YTsJCTxnIGlkPSJzaGFwZTQyMTItOCI+JiN4YTsJCQk8dGl0bGUgaWQ9InRpdGxlNTAyMTAiPlNoZWV0LjQyMTI8L3RpdGxlPiYjeGE7CQkJPHBhdGggaWQ9InBhdGg1MDIxMiIgaW5rc2NhcGU6Y29ubmVjdG9yLWN1cnZhdHVyZT0iMCIgc3R5bGU9ImZpbGw6I0MwMDAwMDsiIGQ9Ik0yNi4wNyw1Ny4wMUgwLjkyQzAuNDEsNTcuMDEsMCw1Ni42LDAsNTYuMDkgICAgIHYtOS43NWgyNi45OXY5Ljc1QzI2Ljk5LDU2LjYsMjYuNTgsNTcuMDEsMjYuMDcsNTcuMDF6Ii8+JiN4YTsJCTwvZz4mI3hhOwkJPGcgaWQ9Imdyb3VwNDIxMy0xMCIgdHJhbnNmb3JtPSJ0cmFuc2xhdGUoNS44MDI1NywtMS44ODMxNCkiPiYjeGE7CQkJPHRpdGxlIGlkPSJ0aXRsZTUwMjE1Ij5TaGVldC40MjEzPC90aXRsZT4mI3hhOwkJCTxnIGlkPSJzaGFwZTQyMTQtMTEiPiYjeGE7CQkJCTx0aXRsZSBpZD0idGl0bGU1MDIxNyI+U2hlZXQuNDIxNDwvdGl0bGU+JiN4YTsJCQkJPHBhdGggaWQ9InBhdGg1MDIxOSIgaW5rc2NhcGU6Y29ubmVjdG9yLWN1cnZhdHVyZT0iMCIgc3R5bGU9ImZpbGw6I0ZGRkZGRjsiIGQ9Ik0xLjAzLDU3LjAxSDB2LTYuMzNoMS44MiAgICAgIGMwLjI3LDAsMC41MywwLjA1LDAuOCwwLjEzYzAuMjYsMC4wOSwwLjUsMC4yMiwwLjcsMC4zOWMwLjIxLDAuMTcsMC4zOCwwLjM4LDAuNTEsMC42MmMwLjEzLDAuMjQsMC4xOSwwLjUyLDAuMTksMC44MiAgICAgIGMwLDAuMzItMC4wNSwwLjYxLTAuMTYsMC44N2MtMC4xMSwwLjI2LTAuMjYsMC40OC0wLjQ1LDAuNjZjLTAuMiwwLjE4LTAuNDMsMC4zMS0wLjcxLDAuNDFjLTAuMjcsMC4xLTAuNTgsMC4xNS0wLjkxLDAuMTVIMS4wMyAgICAgIFY1Ny4wMXogTTEuMDMsNTEuNDd2Mi41aDAuOTRjMC4xMywwLDAuMjUtMC4wMiwwLjM4LTAuMDZjMC4xMi0wLjA1LDAuMjMtMC4xMiwwLjM0LTAuMjFjMC4xLTAuMSwwLjE4LTAuMjQsMC4yNS0wLjQxICAgICAgQzMsNTMuMTEsMy4wMyw1Mi45LDMuMDMsNTIuNjRjMC0wLjEtMC4wMi0wLjIyLTAuMDQtMC4zNmMtMC4wMy0wLjEzLTAuMDktMC4yNi0wLjE4LTAuMzhjLTAuMDktMC4xMi0wLjIxLTAuMjMtMC4zNy0wLjMxICAgICAgYy0wLjE2LTAuMDgtMC4zNy0wLjEyLTAuNjQtMC4xMkwxLjAzLDUxLjQ3eiIvPiYjeGE7CQkJPC9nPiYjeGE7CQkJPGcgaWQ9InNoYXBlNDIxNS0xMyIgdHJhbnNmb3JtPSJ0cmFuc2xhdGUoNS4yMzUxMikiPiYjeGE7CQkJCTx0aXRsZSBpZD0idGl0bGU1MDIyMiI+U2hlZXQuNDIxNTwvdGl0bGU+JiN4YTsJCQkJPHBhdGggaWQ9InBhdGg1MDIyNCIgaW5rc2NhcGU6Y29ubmVjdG9yLWN1cnZhdHVyZT0iMCIgc3R5bGU9ImZpbGw6I0ZGRkZGRjsiIGQ9Ik01LjExLDUzLjY3YzAsMC41Mi0wLjA2LDAuOTctMC4xNywxLjM0ICAgICAgYy0wLjExLDAuMzYtMC4yNSwwLjY3LTAuNDMsMC45MmMtMC4xNywwLjI1LTAuMzYsMC40NS0wLjU4LDAuNTljLTAuMjEsMC4xNC0wLjQyLDAuMjUtMC42MiwwLjMyYy0wLjIsMC4wNy0wLjM4LDAuMTItMC41NSwwLjE0ICAgICAgQzIuNiw1NywyLjQ3LDU3LjAxLDIuMzksNTcuMDFIMHYtNi4zM2gxLjkxYzAuNTMsMCwxLDAuMDksMS40LDAuMjZzMC43NCwwLjM5LDEsMC42N2MwLjI3LDAuMjgsMC40NywwLjYsMC42LDAuOTYgICAgICBTNS4xMSw1My4yOSw1LjExLDUzLjY3eiBNMi4wNSw1Ni4yNWMwLjcsMCwxLjItMC4yMiwxLjUxLTAuNjdjMC4zMS0wLjQ0LDAuNDYtMS4wOSwwLjQ2LTEuOTNjMC0wLjI3LTAuMDMtMC41My0wLjA5LTAuNzkgICAgICBjLTAuMDYtMC4yNS0wLjE4LTAuNDktMC4zNi0wLjdjLTAuMTgtMC4yLTAuNDMtMC4zNy0wLjc0LTAuNXMtMC43MS0wLjE5LTEuMi0wLjE5aC0wLjZ2NC43OEgyLjA1eiIvPiYjeGE7CQkJPC9nPiYjeGE7CQkJPGcgaWQ9InNoYXBlNDIxNi0xNSIgdHJhbnNmb3JtPSJ0cmFuc2xhdGUoMTEuODM0OSkiPiYjeGE7CQkJCTx0aXRsZSBpZD0idGl0bGU1MDIyNyI+U2hlZXQuNDIxNjwvdGl0bGU+JiN4YTsJCQkJPHBhdGggaWQ9InBhdGg1MDIyOSIgaW5rc2NhcGU6Y29ubmVjdG9yLWN1cnZhdHVyZT0iMCIgc3R5bGU9ImZpbGw6I0ZGRkZGRjsiIGQ9Ik0xLjA1LDUxLjQ3djEuOTloMi42NHYwLjdIMS4wNXYyLjg1SDB2LTYuMzMgICAgICBoMy45NnYwLjc5SDEuMDV6Ii8+JiN4YTsJCQk8L2c+JiN4YTsJCTwvZz4mI3hhOwk8L2c+JiN4YTs8L2c+JiN4YTs8L3N2Zz4=;" vertex="1" parent="bDUzA2bUJVOD7ySQ1u_B-8">
          <mxGeometry x="10" y="10" width="27" height="35" as="geometry" />
        </mxCell>
        <mxCell id="bDUzA2bUJVOD7ySQ1u_B-7" value="" style="shape=image;verticalLabelPosition=bottom;labelBackgroundColor=#ffffff;verticalAlign=top;aspect=fixed;imageAspect=0;image=data:image/svg+xml,PHN2ZyB4bWxuczpjYz0iaHR0cDovL2NyZWF0aXZlY29tbW9ucy5vcmcvbnMjIiB4bWxuczpkYz0iaHR0cDovL3B1cmwub3JnL2RjL2VsZW1lbnRzLzEuMS8iIHhtbG5zOmlua3NjYXBlPSJodHRwOi8vd3d3Lmlua3NjYXBlLm9yZy9uYW1lc3BhY2VzL2lua3NjYXBlIiB4bWxuczpyZGY9Imh0dHA6Ly93d3cudzMub3JnLzE5OTkvMDIvMjItcmRmLXN5bnRheC1ucyMiIHhtbG5zOnNvZGlwb2RpPSJodHRwOi8vc29kaXBvZGkuc291cmNlZm9yZ2UubmV0L0RURC9zb2RpcG9kaS0wLmR0ZCIgeG1sbnM6c3ZnPSJodHRwOi8vd3d3LnczLm9yZy8yMDAwL3N2ZyIgeG1sbnM9Imh0dHA6Ly93d3cudzMub3JnLzIwMDAvc3ZnIiB4bWxuczp4bGluaz0iaHR0cDovL3d3dy53My5vcmcvMTk5OS94bGluayIgdmVyc2lvbj0iMS4xIiBpZD0ic3ZnNTAyMzYiIGlua3NjYXBlOnZlcnNpb249IjAuOTIuMyAoMjQwNTU0NiwgMjAxOC0wMy0xMSkiIHNvZGlwb2RpOmRvY25hbWU9InBkZi5zdmciIHg9IjBweCIgeT0iMHB4IiB2aWV3Qm94PSIwIDAgMjYuOTkgMzUuMTUiIHN0eWxlPSJlbmFibGUtYmFja2dyb3VuZDpuZXcgMCAwIDI2Ljk5IDM1LjE1OyIgeG1sOnNwYWNlPSJwcmVzZXJ2ZSI+JiN4YTs8c29kaXBvZGk6bmFtZWR2aWV3IGJvcmRlcmNvbG9yPSIjNjY2NjY2IiBib3JkZXJvcGFjaXR5PSIxIiBmaXQtbWFyZ2luLWJvdHRvbT0iMCIgZml0LW1hcmdpbi1sZWZ0PSIwIiBmaXQtbWFyZ2luLXJpZ2h0PSIwIiBmaXQtbWFyZ2luLXRvcD0iMCIgZ3JpZHRvbGVyYW5jZT0iMTAiIGd1aWRldG9sZXJhbmNlPSIxMCIgaWQ9Im5hbWVkdmlldzUwMjM4IiBpbmtzY2FwZTpjdXJyZW50LWxheWVyPSJzdmc1MDIzNiIgaW5rc2NhcGU6Y3g9IjE3Ljk5NDM4NCIgaW5rc2NhcGU6Y3k9IjIzLjQzNTg1IiBpbmtzY2FwZTpwYWdlb3BhY2l0eT0iMCIgaW5rc2NhcGU6cGFnZXNoYWRvdz0iMiIgaW5rc2NhcGU6d2luZG93LWhlaWdodD0iMTAxNyIgaW5rc2NhcGU6d2luZG93LW1heGltaXplZD0iMSIgaW5rc2NhcGU6d2luZG93LXdpZHRoPSIxOTIwIiBpbmtzY2FwZTp3aW5kb3cteD0iLTgiIGlua3NjYXBlOndpbmRvdy15PSItOCIgaW5rc2NhcGU6em9vbT0iMTEuNDA2MDg5IiBvYmplY3R0b2xlcmFuY2U9IjEwIiBwYWdlY29sb3I9IiNmZmZmZmYiIHNob3dncmlkPSJmYWxzZSI+JiN4YTsJPC9zb2RpcG9kaTpuYW1lZHZpZXc+JiN4YTs8ZyBpZD0iZzUwMjM0IiB0cmFuc2Zvcm09InRyYW5zbGF0ZSgtMTAuOTI4NiwtMTAuOTMxNDM0KSI+JiN4YTsJPHRpdGxlIGlkPSJ0aXRsZTUwMTkxIj5QYWdlLTE8L3RpdGxlPiYjeGE7CTxnIGlkPSJncm91cDQyMDgtMSIgdHJhbnNmb3JtPSJ0cmFuc2xhdGUoMTAuOTI4NiwtMTAuOTI4NikiPiYjeGE7CQk8dGl0bGUgaWQ9InRpdGxlNTAxOTMiPlBERjwvdGl0bGU+JiN4YTsJCTxnIGlkPSJzaGFwZTQyMDktMiI+JiN4YTsJCQk8dGl0bGUgaWQ9InRpdGxlNTAxOTUiPlNoZWV0LjQyMDk8L3RpdGxlPiYjeGE7CQkJPHBhdGggaWQ9InBhdGg1MDE5NyIgaW5rc2NhcGU6Y29ubmVjdG9yLWN1cnZhdHVyZT0iMCIgc3R5bGU9ImZpbGw6I0U5RTlFMDsiIGQ9Ik0xOS4xNCwyMS44NkgwLjkyQzAuNDEsMjEuODYsMCwyMi4yNywwLDIzLjA3ICAgICB2MzMuMzFjMCwwLjIyLDAuNDEsMC42MywwLjkyLDAuNjNoMjUuMTVjMC41MSwwLDAuOTItMC40MSwwLjkyLTAuNjNWMzBjMC0wLjQzLTAuMDYtMC41Ny0wLjE2LTAuNjhsLTcuMy03LjMgICAgIEMxOS40MiwyMS45MiwxOS4yOCwyMS44NiwxOS4xNCwyMS44NnoiLz4mI3hhOwkJPC9nPiYjeGE7CQk8ZyBpZD0ic2hhcGU0MjEwLTQiIHRyYW5zZm9ybT0idHJhbnNsYXRlKDE5LjQ1OTEsLTI3LjYxOTMpIj4mI3hhOwkJCTx0aXRsZSBpZD0idGl0bGU1MDIwMCI+U2hlZXQuNDIxMDwvdGl0bGU+JiN4YTsJCQk8cGF0aCBpZD0icGF0aDUwMjAyIiBpbmtzY2FwZTpjb25uZWN0b3ItY3VydmF0dXJlPSIwIiBzdHlsZT0iZmlsbDojRDlEN0NBOyIgZD0iTTAsNDkuNTd2Ny40NGg3LjQ0TDAsNDkuNTd6Ii8+JiN4YTsJCTwvZz4mI3hhOwkJPGcgaWQ9InNoYXBlNDIxMS02IiB0cmFuc2Zvcm09InRyYW5zbGF0ZSg2LjgyMDcyLC0xNC4yMzQpIj4mI3hhOwkJCTx0aXRsZSBpZD0idGl0bGU1MDIwNSI+U2hlZXQuNDIxMTwvdGl0bGU+JiN4YTsJCQk8cGF0aCBpZD0icGF0aDUwMjA3IiBpbmtzY2FwZTpjb25uZWN0b3ItY3VydmF0dXJlPSIwIiBzdHlsZT0iZmlsbDojQzAwMDAwOyIgZD0iTTEuMzUsNTcuMDFjLTAuMjIsMC0wLjQzLTAuMDctMC42MS0wLjIxICAgICBjLTAuNjUtMC40OS0wLjc0LTEuMDMtMC43LTEuNGMwLjEyLTEuMDIsMS4zOC0yLjA5LDMuNzYtMy4xOGMwLjk0LTIuMDcsMS44NC00LjYyLDIuMzgtNi43NWMtMC42My0xLjM3LTEuMjQtMy4xMy0wLjgtNC4xNyAgICAgYzAuMTYtMC4zNywwLjM1LTAuNjQsMC43Mi0wLjc2YzAuMTQtMC4wNSwwLjUtMC4xMSwwLjYzLTAuMTFjMC4zMiwwLDAuNiwwLjQsMC44LDAuNjZjMC4xOCwwLjIzLDAuNiwwLjczLTAuMjQsNC4yNyAgICAgYzAuODUsMS43NCwyLjA1LDMuNTIsMy4yLDQuNzRjMC44Mi0wLjE1LDEuNTMtMC4yMiwyLjEtMC4yMmMwLjk5LDAsMS41OCwwLjIzLDEuODIsMC43YzAuMjEsMC4zOSwwLjEyLDAuODUtMC4yNCwxLjM1ICAgICBjLTAuMzUsMC40OS0wLjgzLDAuNzUtMS4zOSwwLjc1Yy0wLjc3LDAtMS42Ni0wLjQ4LTIuNjUtMS40M2MtMS43OCwwLjM3LTMuODYsMS4wMy01LjU0LDEuNzdjLTAuNTIsMS4xMS0xLjAzLDIuMDEtMS40OSwyLjY3ICAgICBDMi40NSw1Ni41OSwxLjksNTcuMDEsMS4zNSw1Ny4wMXogTTMuMDIsNTMuNzljLTEuMzQsMC43Ni0xLjg5LDEuMzctMS45MywxLjcyYzAsMC4wNi0wLjAyLDAuMjEsMC4yNywwLjQ0ICAgICBDMS40Niw1NS45MiwyLDU1LjY3LDMuMDIsNTMuNzl6IE0xMS41OCw1MWMwLjUxLDAuNCwwLjY0LDAuNiwwLjk3LDAuNmMwLjE1LDAsMC41Ny0wLjAxLDAuNzYtMC4yOCAgICAgYzAuMDktMC4xMywwLjEzLTAuMjIsMC4xNC0wLjI2Yy0wLjA3LTAuMDQtMC4xOC0wLjEzLTAuNzMtMC4xM0MxMi40LDUwLjk0LDEyLDUwLjk1LDExLjU4LDUxeiBNNi44OSw0Ni44NyAgICAgYy0wLjQ1LDEuNTUtMS4wNCwzLjIzLTEuNjgsNC43NWMxLjMxLTAuNTEsMi43NC0wLjk1LDQuMDgtMS4yN0M4LjQ0LDQ5LjM3LDcuNiw0OC4xNCw2Ljg5LDQ2Ljg3eiBNNi41MSw0MS41NiAgICAgYy0wLjA2LDAuMDItMC44NCwxLjEsMC4wNiwyLjAyQzcuMTcsNDIuMjUsNi41NCw0MS41NSw2LjUxLDQxLjU2eiIvPiYjeGE7CQk8L2c+JiN4YTsJCTxnIGlkPSJzaGFwZTQyMTItOCI+JiN4YTsJCQk8dGl0bGUgaWQ9InRpdGxlNTAyMTAiPlNoZWV0LjQyMTI8L3RpdGxlPiYjeGE7CQkJPHBhdGggaWQ9InBhdGg1MDIxMiIgaW5rc2NhcGU6Y29ubmVjdG9yLWN1cnZhdHVyZT0iMCIgc3R5bGU9ImZpbGw6I0MwMDAwMDsiIGQ9Ik0yNi4wNyw1Ny4wMUgwLjkyQzAuNDEsNTcuMDEsMCw1Ni42LDAsNTYuMDkgICAgIHYtOS43NWgyNi45OXY5Ljc1QzI2Ljk5LDU2LjYsMjYuNTgsNTcuMDEsMjYuMDcsNTcuMDF6Ii8+JiN4YTsJCTwvZz4mI3hhOwkJPGcgaWQ9Imdyb3VwNDIxMy0xMCIgdHJhbnNmb3JtPSJ0cmFuc2xhdGUoNS44MDI1NywtMS44ODMxNCkiPiYjeGE7CQkJPHRpdGxlIGlkPSJ0aXRsZTUwMjE1Ij5TaGVldC40MjEzPC90aXRsZT4mI3hhOwkJCTxnIGlkPSJzaGFwZTQyMTQtMTEiPiYjeGE7CQkJCTx0aXRsZSBpZD0idGl0bGU1MDIxNyI+U2hlZXQuNDIxNDwvdGl0bGU+JiN4YTsJCQkJPHBhdGggaWQ9InBhdGg1MDIxOSIgaW5rc2NhcGU6Y29ubmVjdG9yLWN1cnZhdHVyZT0iMCIgc3R5bGU9ImZpbGw6I0ZGRkZGRjsiIGQ9Ik0xLjAzLDU3LjAxSDB2LTYuMzNoMS44MiAgICAgIGMwLjI3LDAsMC41MywwLjA1LDAuOCwwLjEzYzAuMjYsMC4wOSwwLjUsMC4yMiwwLjcsMC4zOWMwLjIxLDAuMTcsMC4zOCwwLjM4LDAuNTEsMC42MmMwLjEzLDAuMjQsMC4xOSwwLjUyLDAuMTksMC44MiAgICAgIGMwLDAuMzItMC4wNSwwLjYxLTAuMTYsMC44N2MtMC4xMSwwLjI2LTAuMjYsMC40OC0wLjQ1LDAuNjZjLTAuMiwwLjE4LTAuNDMsMC4zMS0wLjcxLDAuNDFjLTAuMjcsMC4xLTAuNTgsMC4xNS0wLjkxLDAuMTVIMS4wMyAgICAgIFY1Ny4wMXogTTEuMDMsNTEuNDd2Mi41aDAuOTRjMC4xMywwLDAuMjUtMC4wMiwwLjM4LTAuMDZjMC4xMi0wLjA1LDAuMjMtMC4xMiwwLjM0LTAuMjFjMC4xLTAuMSwwLjE4LTAuMjQsMC4yNS0wLjQxICAgICAgQzMsNTMuMTEsMy4wMyw1Mi45LDMuMDMsNTIuNjRjMC0wLjEtMC4wMi0wLjIyLTAuMDQtMC4zNmMtMC4wMy0wLjEzLTAuMDktMC4yNi0wLjE4LTAuMzhjLTAuMDktMC4xMi0wLjIxLTAuMjMtMC4zNy0wLjMxICAgICAgYy0wLjE2LTAuMDgtMC4zNy0wLjEyLTAuNjQtMC4xMkwxLjAzLDUxLjQ3eiIvPiYjeGE7CQkJPC9nPiYjeGE7CQkJPGcgaWQ9InNoYXBlNDIxNS0xMyIgdHJhbnNmb3JtPSJ0cmFuc2xhdGUoNS4yMzUxMikiPiYjeGE7CQkJCTx0aXRsZSBpZD0idGl0bGU1MDIyMiI+U2hlZXQuNDIxNTwvdGl0bGU+JiN4YTsJCQkJPHBhdGggaWQ9InBhdGg1MDIyNCIgaW5rc2NhcGU6Y29ubmVjdG9yLWN1cnZhdHVyZT0iMCIgc3R5bGU9ImZpbGw6I0ZGRkZGRjsiIGQ9Ik01LjExLDUzLjY3YzAsMC41Mi0wLjA2LDAuOTctMC4xNywxLjM0ICAgICAgYy0wLjExLDAuMzYtMC4yNSwwLjY3LTAuNDMsMC45MmMtMC4xNywwLjI1LTAuMzYsMC40NS0wLjU4LDAuNTljLTAuMjEsMC4xNC0wLjQyLDAuMjUtMC42MiwwLjMyYy0wLjIsMC4wNy0wLjM4LDAuMTItMC41NSwwLjE0ICAgICAgQzIuNiw1NywyLjQ3LDU3LjAxLDIuMzksNTcuMDFIMHYtNi4zM2gxLjkxYzAuNTMsMCwxLDAuMDksMS40LDAuMjZzMC43NCwwLjM5LDEsMC42N2MwLjI3LDAuMjgsMC40NywwLjYsMC42LDAuOTYgICAgICBTNS4xMSw1My4yOSw1LjExLDUzLjY3eiBNMi4wNSw1Ni4yNWMwLjcsMCwxLjItMC4yMiwxLjUxLTAuNjdjMC4zMS0wLjQ0LDAuNDYtMS4wOSwwLjQ2LTEuOTNjMC0wLjI3LTAuMDMtMC41My0wLjA5LTAuNzkgICAgICBjLTAuMDYtMC4yNS0wLjE4LTAuNDktMC4zNi0wLjdjLTAuMTgtMC4yLTAuNDMtMC4zNy0wLjc0LTAuNXMtMC43MS0wLjE5LTEuMi0wLjE5aC0wLjZ2NC43OEgyLjA1eiIvPiYjeGE7CQkJPC9nPiYjeGE7CQkJPGcgaWQ9InNoYXBlNDIxNi0xNSIgdHJhbnNmb3JtPSJ0cmFuc2xhdGUoMTEuODM0OSkiPiYjeGE7CQkJCTx0aXRsZSBpZD0idGl0bGU1MDIyNyI+U2hlZXQuNDIxNjwvdGl0bGU+JiN4YTsJCQkJPHBhdGggaWQ9InBhdGg1MDIyOSIgaW5rc2NhcGU6Y29ubmVjdG9yLWN1cnZhdHVyZT0iMCIgc3R5bGU9ImZpbGw6I0ZGRkZGRjsiIGQ9Ik0xLjA1LDUxLjQ3djEuOTloMi42NHYwLjdIMS4wNXYyLjg1SDB2LTYuMzMgICAgICBoMy45NnYwLjc5SDEuMDV6Ii8+JiN4YTsJCQk8L2c+JiN4YTsJCTwvZz4mI3hhOwk8L2c+JiN4YTs8L2c+JiN4YTs8L3N2Zz4=;" vertex="1" parent="bDUzA2bUJVOD7ySQ1u_B-8">
          <mxGeometry x="20" y="20" width="27" height="35" as="geometry" />
        </mxCell>
        <mxCell id="bDUzA2bUJVOD7ySQ1u_B-21" style="edgeStyle=orthogonalEdgeStyle;rounded=0;orthogonalLoop=1;jettySize=auto;html=1;entryX=0.5;entryY=0;entryDx=0;entryDy=0;" edge="1" parent="bDUzA2bUJVOD7ySQ1u_B-1" source="bDUzA2bUJVOD7ySQ1u_B-9" target="bDUzA2bUJVOD7ySQ1u_B-2">
          <mxGeometry relative="1" as="geometry">
            <Array as="points">
              <mxPoint x="565" y="380" />
              <mxPoint x="503" y="380" />
            </Array>
          </mxGeometry>
        </mxCell>
        <mxCell id="bDUzA2bUJVOD7ySQ1u_B-23" style="edgeStyle=orthogonalEdgeStyle;rounded=0;orthogonalLoop=1;jettySize=auto;html=1;entryX=0.489;entryY=-0.008;entryDx=0;entryDy=0;entryPerimeter=0;" edge="1" parent="bDUzA2bUJVOD7ySQ1u_B-1" source="bDUzA2bUJVOD7ySQ1u_B-9" target="bDUzA2bUJVOD7ySQ1u_B-4">
          <mxGeometry relative="1" as="geometry">
            <Array as="points">
              <mxPoint x="565" y="380" />
              <mxPoint x="625" y="380" />
            </Array>
          </mxGeometry>
        </mxCell>
        <mxCell id="bDUzA2bUJVOD7ySQ1u_B-9" value="Homie.DocumentStorage" style="aspect=fixed;html=1;points=[];align=center;image;fontSize=12;image=img/lib/mscae/App_Services.svg;" vertex="1" parent="bDUzA2bUJVOD7ySQ1u_B-1">
          <mxGeometry x="540" y="300" width="50" height="50" as="geometry" />
        </mxCell>
        <mxCell id="bDUzA2bUJVOD7ySQ1u_B-10" value="[docs]" style="shape=image;verticalLabelPosition=bottom;labelBackgroundColor=#ffffff;verticalAlign=top;aspect=fixed;imageAspect=0;image=data:image/svg+xml,PHN2ZyB4bWxuczpkYz0iaHR0cDovL3B1cmwub3JnL2RjL2VsZW1lbnRzLzEuMS8iIHhtbG5zOmNjPSJodHRwOi8vY3JlYXRpdmVjb21tb25zLm9yZy9ucyMiIHhtbG5zOnJkZj0iaHR0cDovL3d3dy53My5vcmcvMTk5OS8wMi8yMi1yZGYtc3ludGF4LW5zIyIgeG1sbnM6c3ZnPSJodHRwOi8vd3d3LnczLm9yZy8yMDAwL3N2ZyIgeG1sbnM9Imh0dHA6Ly93d3cudzMub3JnLzIwMDAvc3ZnIiB4bWxuczpzb2RpcG9kaT0iaHR0cDovL3NvZGlwb2RpLnNvdXJjZWZvcmdlLm5ldC9EVEQvc29kaXBvZGktMC5kdGQiIHhtbG5zOmlua3NjYXBlPSJodHRwOi8vd3d3Lmlua3NjYXBlLm9yZy9uYW1lc3BhY2VzL2lua3NjYXBlIiB2ZXJzaW9uPSIxLjEiIGlkPSJzdmcxMDQ1NzIiIGlua3NjYXBlOnZlcnNpb249IjAuOTIuMyAoMjQwNTU0NiwgMjAxOC0wMy0xMSkiIHNvZGlwb2RpOmRvY25hbWU9InNxbC5zdmciIHg9IjBweCIgeT0iMHB4IiB2aWV3Qm94PSIwIDAgNDYuMDMgNjEuMDIiIHhtbDpzcGFjZT0icHJlc2VydmUiIHdpZHRoPSI0Ni4wMjk5OTkiIGhlaWdodD0iNjEuMDIiPjxtZXRhZGF0YSBpZD0ibWV0YWRhdGExMDQ4Ij48cmRmOlJERj48Y2M6V29yayByZGY6YWJvdXQ9IiI+PGRjOmZvcm1hdD5pbWFnZS9zdmcreG1sPC9kYzpmb3JtYXQ+PGRjOnR5cGUgcmRmOnJlc291cmNlPSJodHRwOi8vcHVybC5vcmcvZGMvZGNtaXR5cGUvU3RpbGxJbWFnZSIvPjxkYzp0aXRsZS8+PC9jYzpXb3JrPjwvcmRmOlJERj48L21ldGFkYXRhPjxkZWZzIGlkPSJkZWZzMTA0NiI+JiN4YTsJJiN4YTsmI3hhOwkmI3hhOyYjeGE7CSYjeGE7JiN4YTsJJiN4YTsmI3hhOwkmI3hhOyYjeGE7CSYjeGE7JiN4YTsJJiN4YTsmI3hhOwkmI3hhOyYjeGE7CSYjeGE7JiN4YTsJCSYjeGE7CSYjeGE7CQkmI3hhOwkmI3hhOwkJJiN4YTsJJiN4YTsJCSYjeGE7CSYjeGE7CQkmI3hhOwkmI3hhOwkJJiN4YTsJJiN4YTsJCSYjeGE7CSYjeGE7CQkmI3hhOwk8L2RlZnM+JiN4YTs8ZmlsdGVyIGlkPSJmaWx0ZXJfMiI+JiN4YTsJPGZlR2F1c3NpYW5CbHVyIGlkPSJmZUdhdXNzaWFuQmx1cjEwNDQ4OSIgc3RkRGV2aWF0aW9uPSIyIi8+JiN4YTs8L2ZpbHRlcj4mI3hhOzxzb2RpcG9kaTpuYW1lZHZpZXcgYm9yZGVyY29sb3I9IiM2NjY2NjYiIGJvcmRlcm9wYWNpdHk9IjEiIGZpdC1tYXJnaW4tYm90dG9tPSIwIiBmaXQtbWFyZ2luLWxlZnQ9IjAiIGZpdC1tYXJnaW4tcmlnaHQ9IjAiIGZpdC1tYXJnaW4tdG9wPSIwIiBncmlkdG9sZXJhbmNlPSIxMCIgZ3VpZGV0b2xlcmFuY2U9IjEwIiBpZD0ibmFtZWR2aWV3MTA0NTc0IiBpbmtzY2FwZTpjdXJyZW50LWxheWVyPSJzdmcxMDQ1NzIiIGlua3NjYXBlOmN4PSIwLjI3NDc3MzkyIiBpbmtzY2FwZTpjeT0iMjcuOTI1ODA5IiBpbmtzY2FwZTpwYWdlb3BhY2l0eT0iMCIgaW5rc2NhcGU6cGFnZXNoYWRvdz0iMiIgaW5rc2NhcGU6d2luZG93LWhlaWdodD0iMTAxNyIgaW5rc2NhcGU6d2luZG93LW1heGltaXplZD0iMSIgaW5rc2NhcGU6d2luZG93LXdpZHRoPSIxOTIwIiBpbmtzY2FwZTp3aW5kb3cteD0iLTgiIGlua3NjYXBlOndpbmRvdy15PSItOCIgaW5rc2NhcGU6em9vbT0iNy42MDUyNjMyIiBvYmplY3R0b2xlcmFuY2U9IjEwIiBwYWdlY29sb3I9IiNmZmZmZmYiIHNob3dncmlkPSJmYWxzZSI+JiN4YTsJPC9zb2RpcG9kaTpuYW1lZHZpZXc+JiN4YTsmI3hhOzxwYXRoIGlkPSJwYXRoMTA0NTAyIiBpbmtzY2FwZTpjb25uZWN0b3ItY3VydmF0dXJlPSIwIiBzdHlsZT0iZmlsbDojMDA3MmM2IiBkPSJtIDAsOC4zNCB2IDQ0LjM0IGMgMCw0LjYxIDEwLjMxLDguMzQgMjMuMDIsOC4zNCBWIDguMzQgWiIvPiYjeGE7JiN4YTs8cGF0aCBpZD0icGF0aDEwNDUxMCIgaW5rc2NhcGU6Y29ubmVjdG9yLWN1cnZhdHVyZT0iMCIgc3R5bGU9ImZpbGw6IzAwNzJjNiIgZD0ibSAyMi43LDYxLjAyIGggMC4zMiBjIDEyLjcxLDAgMjMuMDEsLTMuNzMgMjMuMDEsLTguMzQgViA4LjM0IEggMjIuNyBaIi8+JiN4YTsmI3hhOzxwYXRoIGlkPSJwYXRoMTA0NTE4IiBpbmtzY2FwZTpjb25uZWN0b3ItY3VydmF0dXJlPSIwIiBzdHlsZT0iZmlsbDojZmZmZmZmO2ZpbGwtb3BhY2l0eTowLjE1IiBkPSJtIDIyLjcsNjEuMDIgaCAwLjMyIGMgMTIuNzEsMCAyMy4wMSwtMy43MyAyMy4wMSwtOC4zNCBWIDguMzQgSCAyMi43IFoiLz4mI3hhOyYjeGE7PHBhdGggaWQ9InBhdGgxMDQ1MjYiIGlua3NjYXBlOmNvbm5lY3Rvci1jdXJ2YXR1cmU9IjAiIHN0eWxlPSJmaWxsOiNmZmZmZmYiIGQ9Im0gNDYuMDMsOC4zMyBjIDAsNC42MSAtMTAuMyw4LjM0IC0yMy4wMSw4LjM0IEMgMTAuMzEsMTYuNjcgMCwxMi45NCAwLDguMzMgMCwzLjczIDEwLjMxLDAgMjMuMDIsMCAzNS43MywwIDQ2LjAzLDMuNzMgNDYuMDMsOC4zMyBaIi8+JiN4YTsmI3hhOzxwYXRoIGlkPSJwYXRoMTA0NTM0IiBpbmtzY2FwZTpjb25uZWN0b3ItY3VydmF0dXJlPSIwIiBzdHlsZT0iZmlsbDojN2ZiYTAwIiBkPSJtIDQxLjMyLDcuODUgYyAwLDMuMDQgLTguMTksNS41IC0xOC4zMSw1LjUgLTEwLjExLDAgLTE4LjMxLC0yLjQ2IC0xOC4zMSwtNS41IDAsLTMuMDQgOC4yLC01LjUgMTguMzEsLTUuNSAxMC4xMiwwIDE4LjMxLDIuNDYgMTguMzEsNS41IHoiLz4mI3hhOyYjeGE7PHBhdGggaWQ9InBhdGgxMDQ1NDIiIGlua3NjYXBlOmNvbm5lY3Rvci1jdXJ2YXR1cmU9IjAiIHN0eWxlPSJmaWxsOiNiOGQ0MzIiIGQ9Im0gMzcuNSwxMS4yMSBjIDIuMzksLTAuOTMgMy44MywtMi4wOSAzLjgzLC0zLjM2IDAsLTMuMDQgLTguMTksLTUuNSAtMTguMzEsLTUuNSAtMTAuMTEsMCAtMTguMzEsMi40NiAtMTguMzEsNS41IDAsMS4yNyAxLjQ0LDIuNDMgMy44NCwzLjM2IDMuMzUsLTEuMyA4LjU4LC0yLjE0IDE0LjQ3LC0yLjE0IDUuOSwwIDExLjEzLDAuODQgMTQuNDgsMi4xNCB6Ii8+JiN4YTsmI3hhOzxwYXRoIGlkPSJwYXRoMTA0NTUwIiBpbmtzY2FwZTpjb25uZWN0b3ItY3VydmF0dXJlPSIwIiBzdHlsZT0iZmlsbDojZmZmZmZmIiBkPSJtIDE1LjcxLDM5LjExIGMgMCwxLjM4IC0wLjUsMi40NSAtMS41LDMuMjEgLTEsMC43NSAtMi4zOCwxLjEzIC00LjE0LDEuMTMgLTEuNSwwIC0yLjc1LC0wLjI3IC0zLjc2LC0wLjgxIFYgMzkuNCBjIDEuMTYsMC45OCAyLjQ0LDEuNDggMy44NCwxLjQ4IDAuNjcsMCAxLjIsLTAuMTQgMS41NiwtMC40MSAwLjM3LC0wLjI3IDAuNTYsLTAuNjMgMC41NiwtMS4wNyAwLC0wLjQ0IC0wLjE4LC0wLjgyIC0wLjUzLC0xLjE1IEMgMTEuMzgsMzcuOTMgMTAuNjYsMzcuNTEgOS41NywzNyA3LjM2LDM1Ljk2IDYuMjUsMzQuNTQgNi4yNSwzMi43NCBjIDAsLTEuMyAwLjQ4LC0yLjM1IDEuNDUsLTMuMTMgMC45NiwtMC43OSAyLjI1LC0xLjE4IDMuODUsLTEuMTggMS40MiwwIDIuNTksMC4xOCAzLjUyLDAuNTUgdiAzLjAzIEMgMTQuMDksMzEuMzQgMTIuOTgsMzEgMTEuNzMsMzEgYyAtMC42MywwIC0xLjEyLDAuMTMgLTEuNDksMC40IC0wLjM2LDAuMjcgLTAuNTQsMC42MiAtMC41NCwxLjA3IDAsMC40NiAwLjE0LDAuODMgMC40NCwxLjEzIDAuMjksMC4yOSAwLjg5LDAuNjUgMS44LDEuMDkgMS4zNiwwLjY0IDIuMzMsMS4yOSAyLjkxLDEuOTUgMC41NywwLjY2IDAuODYsMS40OSAwLjg2LDIuNDcgeiIvPiYjeGE7JiN4YTs8cGF0aCBpZD0icGF0aDEwNDU1OCIgaW5rc2NhcGU6Y29ubmVjdG9yLWN1cnZhdHVyZT0iMCIgc3R5bGU9ImZpbGw6I2ZmZmZmZiIgZD0ibSAzMS4zMywzNS44NCBjIDAsMS43MSAtMC4zOSwzLjE5IC0xLjE2LDQuNDUgLTAuNzgsMS4yNSAtMS44NywyLjEzIC0zLjI4LDIuNjQgbCA0LjIxLDMuOSBoIC00LjI1IGwgLTMuMDEsLTMuMzcgYyAtMS4yOSwtMC4wNSAtMi40NiwtMC4zOSAtMy40OSwtMS4wMyAtMS4wNCwtMC42MyAtMS44NCwtMS41IC0yLjQsLTIuNjEgLTAuNTcsLTEuMSAtMC44NSwtMi4zMyAtMC44NSwtMy42OSAwLC0xLjUgMC4zMSwtMi44NSAwLjkyLC00LjAyIDAuNjEsLTEuMTggMS40NywtMi4wOSAyLjU3LC0yLjcyIDEuMTEsLTAuNjQgMi4zOCwtMC45NiAzLjgxLC0wLjk2IDEuMzQsMCAyLjU0LDAuMzEgMy41OSwwLjkzIDEuMDYsMC42MSAxLjg4LDEuNDggMi40NywyLjYyIDAuNTgsMS4xMyAwLjg3LDIuNDIgMC44NywzLjg2IHogbSAtMy40NCwwLjE4IGMgMCwtMS40NyAtMC4zMiwtMi42MyAtMC45NiwtMy40OSAtMC42NSwtMC44NSAtMS41MiwtMS4yOCAtMi42NCwtMS4yOCAtMS4xMywwIC0yLjA0LDAuNDMgLTIuNzIsMS4yOSAtMC42OCwwLjg1IC0xLjAzLDEuOTkgLTEuMDMsMy40MiAwLDEuNDIgMC4zNCwyLjU1IDEuMDEsMy40IDAuNjcsMC44NCAxLjU1LDEuMjcgMi42NiwxLjI3IDEuMTMsMCAyLjAyLC0wLjQxIDIuNjgsLTEuMjMgMC42NywtMC44MiAxLC0xLjk1IDEsLTMuMzggeiIvPiYjeGE7JiN4YTs8cGF0aCBpZD0icGF0aDEwNDU2NiIgaW5rc2NhcGU6Y29ubmVjdG9yLWN1cnZhdHVyZT0iMCIgc3R5bGU9ImZpbGw6I2ZmZmZmZiIgZD0iTSA0Mi4zOSw0My4yIEggMzMuNzQgViAyOC42NyBoIDMuMjcgdiAxMS44OCBoIDUuMzggeiIvPiYjeGE7PC9zdmc+;" vertex="1" parent="bDUzA2bUJVOD7ySQ1u_B-1">
          <mxGeometry x="190" y="420" width="46" height="61" as="geometry" />
        </mxCell>
        <mxCell id="bDUzA2bUJVOD7ySQ1u_B-14" style="edgeStyle=orthogonalEdgeStyle;rounded=0;orthogonalLoop=1;jettySize=auto;html=1;entryX=0;entryY=0.5;entryDx=0;entryDy=0;" edge="1" parent="bDUzA2bUJVOD7ySQ1u_B-1" source="bDUzA2bUJVOD7ySQ1u_B-11" target="bDUzA2bUJVOD7ySQ1u_B-12">
          <mxGeometry relative="1" as="geometry" />
        </mxCell>
        <mxCell id="bDUzA2bUJVOD7ySQ1u_B-15" style="edgeStyle=orthogonalEdgeStyle;rounded=0;orthogonalLoop=1;jettySize=auto;html=1;" edge="1" parent="bDUzA2bUJVOD7ySQ1u_B-1" source="bDUzA2bUJVOD7ySQ1u_B-11" target="bDUzA2bUJVOD7ySQ1u_B-13">
          <mxGeometry relative="1" as="geometry" />
        </mxCell>
        <mxCell id="bDUzA2bUJVOD7ySQ1u_B-20" style="edgeStyle=orthogonalEdgeStyle;rounded=0;orthogonalLoop=1;jettySize=auto;html=1;entryX=0.5;entryY=0;entryDx=0;entryDy=0;" edge="1" parent="bDUzA2bUJVOD7ySQ1u_B-1" source="bDUzA2bUJVOD7ySQ1u_B-11" target="bDUzA2bUJVOD7ySQ1u_B-10">
          <mxGeometry relative="1" as="geometry" />
        </mxCell>
        <mxCell id="bDUzA2bUJVOD7ySQ1u_B-11" value="Homie.Documents" style="aspect=fixed;html=1;points=[];align=center;image;fontSize=12;image=img/lib/mscae/App_Services.svg;" vertex="1" parent="bDUzA2bUJVOD7ySQ1u_B-1">
          <mxGeometry x="188" y="300" width="50" height="50" as="geometry" />
        </mxCell>
        <mxCell id="bDUzA2bUJVOD7ySQ1u_B-17" style="edgeStyle=orthogonalEdgeStyle;rounded=0;orthogonalLoop=1;jettySize=auto;html=1;entryX=-0.018;entryY=0.546;entryDx=0;entryDy=0;entryPerimeter=0;" edge="1" parent="bDUzA2bUJVOD7ySQ1u_B-1" source="bDUzA2bUJVOD7ySQ1u_B-12" target="bDUzA2bUJVOD7ySQ1u_B-9">
          <mxGeometry relative="1" as="geometry" />
        </mxCell>
        <mxCell id="bDUzA2bUJVOD7ySQ1u_B-12" value="Push Message" style="shape=image;verticalLabelPosition=bottom;labelBackgroundColor=#ffffff;verticalAlign=top;aspect=fixed;imageAspect=0;image=data:image/svg+xml,PHN2ZyB4bWxuczpkYz0iaHR0cDovL3B1cmwub3JnL2RjL2VsZW1lbnRzLzEuMS8iIHhtbG5zOmNjPSJodHRwOi8vY3JlYXRpdmVjb21tb25zLm9yZy9ucyMiIHhtbG5zOnJkZj0iaHR0cDovL3d3dy53My5vcmcvMTk5OS8wMi8yMi1yZGYtc3ludGF4LW5zIyIgeG1sbnM6c3ZnPSJodHRwOi8vd3d3LnczLm9yZy8yMDAwL3N2ZyIgeG1sbnM9Imh0dHA6Ly93d3cudzMub3JnLzIwMDAvc3ZnIiB4bWxuczpzb2RpcG9kaT0iaHR0cDovL3NvZGlwb2RpLnNvdXJjZWZvcmdlLm5ldC9EVEQvc29kaXBvZGktMC5kdGQiIHhtbG5zOmlua3NjYXBlPSJodHRwOi8vd3d3Lmlua3NjYXBlLm9yZy9uYW1lc3BhY2VzL2lua3NjYXBlIiB2ZXJzaW9uPSIxLjEiIGlkPSJzdmcxNTc2NjEiIGlua3NjYXBlOnZlcnNpb249IjAuOTIuMyAoMjQwNTU0NiwgMjAxOC0wMy0xMSkiIHNvZGlwb2RpOmRvY25hbWU9ImF6dXJlX3NlcnZpY2VfYnVzX3F1ZXVlcy5zdmciIHg9IjBweCIgeT0iMHB4IiB2aWV3Qm94PSIwIDAgMzcuNSAzNy41IiBzdHlsZT0iZW5hYmxlLWJhY2tncm91bmQ6bmV3IDAgMCAzNy41IDM3LjU7IiB4bWw6c3BhY2U9InByZXNlcnZlIj48bWV0YWRhdGEgaWQ9Im1ldGFkYXRhMjIyNDUiPjxyZGY6UkRGPjxjYzpXb3JrIHJkZjphYm91dD0iIj48ZGM6Zm9ybWF0PmltYWdlL3N2Zyt4bWw8L2RjOmZvcm1hdD48ZGM6dHlwZSByZGY6cmVzb3VyY2U9Imh0dHA6Ly9wdXJsLm9yZy9kYy9kY21pdHlwZS9TdGlsbEltYWdlIi8+PGRjOnRpdGxlLz48L2NjOldvcms+PC9yZGY6UkRGPjwvbWV0YWRhdGE+PGRlZnMgaWQ9ImRlZnMyMjI0MyIvPiYjeGE7PHNvZGlwb2RpOm5hbWVkdmlldyBib3JkZXJjb2xvcj0iIzY2NjY2NiIgYm9yZGVyb3BhY2l0eT0iMSIgZml0LW1hcmdpbi1ib3R0b209IjAiIGZpdC1tYXJnaW4tbGVmdD0iMCIgZml0LW1hcmdpbi1yaWdodD0iMCIgZml0LW1hcmdpbi10b3A9IjAiIGdyaWR0b2xlcmFuY2U9IjEwIiBndWlkZXRvbGVyYW5jZT0iMTAiIGlkPSJuYW1lZHZpZXcxNTc2NjMiIGlua3NjYXBlOmN1cnJlbnQtbGF5ZXI9InN2ZzE1NzY2MSIgaW5rc2NhcGU6Y3g9IjM0LjAzNjk5NyIgaW5rc2NhcGU6Y3k9IjE1LjYyMjI2MSIgaW5rc2NhcGU6cGFnZW9wYWNpdHk9IjAiIGlua3NjYXBlOnBhZ2VzaGFkb3c9IjIiIGlua3NjYXBlOndpbmRvdy1oZWlnaHQ9IjEwMTciIGlua3NjYXBlOndpbmRvdy1tYXhpbWl6ZWQ9IjEiIGlua3NjYXBlOndpbmRvdy13aWR0aD0iMTkyMCIgaW5rc2NhcGU6d2luZG93LXg9Ii04IiBpbmtzY2FwZTp3aW5kb3cteT0iLTgiIGlua3NjYXBlOnpvb209IjEwLjU3MDAyMiIgb2JqZWN0dG9sZXJhbmNlPSIxMCIgcGFnZWNvbG9yPSIjZmZmZmZmIiBzaG93Z3JpZD0iZmFsc2UiPiYjeGE7CTwvc29kaXBvZGk6bmFtZWR2aWV3PiYjeGE7JiN4YTs8cGF0aCBpZD0icGF0aDE1NzY1NCIgaW5rc2NhcGU6Y29ubmVjdG9yLWN1cnZhdHVyZT0iMCIgc3R5bGU9ImZpbGw6IzNGNTc2NTsiIGQ9Ik0zMC42MiwxOS41OWMwLjcxLDAsMS4zOC0wLjI4LDEuODgtMC43OGw1LTUgIHYtMC4yNkgyMy43M3YwLjI2bDUsNUMyOS4yNCwxOS4zMSwyOS45LDE5LjU5LDMwLjYyLDE5LjU5eiBNMzIuOTgsMTkuMjhjLTAuNjMsMC42My0xLjQ3LDAuOTgtMi4zNiwwLjk4ICBjLTAuODksMC0xLjczLTAuMzUtMi4zNi0wLjk4bC00LjUzLTQuNTJ2OS4xOUgzNy41di05LjE5TDMyLjk4LDE5LjI4eiBNMTkuMzYsMTkuNjZoMi4zMXYtMS44M2gtMi4zMVYxOS42NnogTTE1Ljc4LDE5LjY2aDIuNDUgIHYtMS44M2gtMi40NUwxNS43OCwxOS42NnogTTAuNjIsMEMwLjI1LDAsMCwwLjI1LDAsMC42MnY3LjVDMCw4LjUsMC4yNSw4Ljc1LDAuNjIsOC43NWgzLjc1QzQuNzUsOC43NSw1LDguNSw1LDguMTJWNWgyNy41djMuMTMgIGMwLDAuMzcsMC4yNSwwLjYyLDAuNzUsMC42MmgzLjYyYzAuMzgsMCwwLjYzLTAuMjUsMC42My0wLjYydi03LjVDMzcuNSwwLjI1LDM3LjI1LDAsMzYuODgsMEgwLjYyeiBNNi44OCwxOS41OSAgYzAuNzIsMCwxLjM4LTAuMjgsMS44OS0wLjc4bDUtNXYtMC4yNkgwdjAuMjZsNSw1QzUuNSwxOS4zMSw2LjE3LDE5LjU5LDYuODgsMTkuNTl6IE05LjI0LDE5LjI4Yy0wLjYzLDAuNjMtMS40NywwLjk4LTIuMzYsMC45OCAgcy0xLjczLTAuMzUtMi4zNi0wLjk4TDAsMTQuNzZ2OS4xOWgxMy43N3YtOS4xOUw5LjI0LDE5LjI4eiBNMzYuODgsMzcuNWMwLjM3LDAsMC42Mi0wLjI1LDAuNjItMC42MlYyOS41ICBjMC0wLjM3LTAuMjUtMC42Mi0wLjYyLTAuNjJoLTMuNjNjLTAuMzcsMC0wLjYyLDAuMjUtMC42MiwwLjYydjNINXYtMy4xMmMwLTAuMzgtMC4yNS0wLjYzLTAuNzUtMC42M0gwLjYyQzAuMjUsMjguNzUsMCwyOSwwLDI5LjUgIHY3LjM4YzAsMC4zNywwLjI1LDAuNjIsMC42MiwwLjYySDM2Ljg4eiIvPiYjeGE7PC9zdmc+;" vertex="1" parent="bDUzA2bUJVOD7ySQ1u_B-1">
          <mxGeometry x="360" y="262" width="38" height="38" as="geometry" />
        </mxCell>
        <mxCell id="bDUzA2bUJVOD7ySQ1u_B-16" style="edgeStyle=orthogonalEdgeStyle;rounded=0;orthogonalLoop=1;jettySize=auto;html=1;entryX=-0.04;entryY=0.538;entryDx=0;entryDy=0;entryPerimeter=0;" edge="1" parent="bDUzA2bUJVOD7ySQ1u_B-1" source="bDUzA2bUJVOD7ySQ1u_B-13" target="bDUzA2bUJVOD7ySQ1u_B-9">
          <mxGeometry relative="1" as="geometry" />
        </mxCell>
        <mxCell id="bDUzA2bUJVOD7ySQ1u_B-13" value="" style="outlineConnect=0;dashed=0;verticalLabelPosition=bottom;verticalAlign=top;align=center;html=1;shape=mxgraph.aws3.http_protocol;fillColor=#5294CF;gradientColor=none;" vertex="1" parent="bDUzA2bUJVOD7ySQ1u_B-1">
          <mxGeometry x="360" y="350" width="38" height="40" as="geometry" />
        </mxCell>
        <mxCell id="bDUzA2bUJVOD7ySQ1u_B-19" style="edgeStyle=orthogonalEdgeStyle;rounded=0;orthogonalLoop=1;jettySize=auto;html=1;" edge="1" parent="bDUzA2bUJVOD7ySQ1u_B-1" source="bDUzA2bUJVOD7ySQ1u_B-18" target="bDUzA2bUJVOD7ySQ1u_B-11">
          <mxGeometry relative="1" as="geometry" />
        </mxCell>
        <mxCell id="bDUzA2bUJVOD7ySQ1u_B-18" value="Docusign" style="aspect=fixed;html=1;points=[];align=center;image;fontSize=12;image=img/lib/mscae/Software_as_a_Service.svg;" vertex="1" parent="bDUzA2bUJVOD7ySQ1u_B-1">
          <mxGeometry x="354" y="70" width="50" height="50" as="geometry" />
        </mxCell>
        <mxCell id="bDUzA2bUJVOD7ySQ1u_B-25" style="edgeStyle=orthogonalEdgeStyle;rounded=0;orthogonalLoop=1;jettySize=auto;html=1;entryX=0.776;entryY=0.067;entryDx=0;entryDy=0;entryPerimeter=0;" edge="1" parent="bDUzA2bUJVOD7ySQ1u_B-1" source="bDUzA2bUJVOD7ySQ1u_B-24" target="bDUzA2bUJVOD7ySQ1u_B-11">
          <mxGeometry relative="1" as="geometry" />
        </mxCell>
        <mxCell id="bDUzA2bUJVOD7ySQ1u_B-26" style="edgeStyle=orthogonalEdgeStyle;rounded=0;orthogonalLoop=1;jettySize=auto;html=1;" edge="1" parent="bDUzA2bUJVOD7ySQ1u_B-1" source="bDUzA2bUJVOD7ySQ1u_B-24" target="bDUzA2bUJVOD7ySQ1u_B-9">
          <mxGeometry relative="1" as="geometry">
            <Array as="points">
              <mxPoint x="550" y="176" />
            </Array>
          </mxGeometry>
        </mxCell>
        <mxCell id="bDUzA2bUJVOD7ySQ1u_B-24" value="Home Clients" style="aspect=fixed;pointerEvents=1;shadow=0;dashed=0;html=1;strokeColor=none;labelPosition=center;verticalLabelPosition=bottom;verticalAlign=top;align=center;fillColor=#00188D;shape=mxgraph.mscae.enterprise.client_application" vertex="1" parent="bDUzA2bUJVOD7ySQ1u_B-1">
          <mxGeometry x="375" y="160" width="50" height="32" as="geometry" />
        </mxCell>
        <mxCell id="bDUzA2bUJVOD7ySQ1u_B-27" value="BlobStorage" style="text;html=1;align=center;verticalAlign=middle;resizable=0;points=[];autosize=1;" vertex="1" parent="bDUzA2bUJVOD7ySQ1u_B-1">
          <mxGeometry x="520" y="390" width="80" height="20" as="geometry" />
        </mxCell>
        <mxCell id="bDUzA2bUJVOD7ySQ1u_B-33" style="edgeStyle=orthogonalEdgeStyle;rounded=0;orthogonalLoop=1;jettySize=auto;html=1;" edge="1" parent="bDUzA2bUJVOD7ySQ1u_B-1" source="bDUzA2bUJVOD7ySQ1u_B-28">
          <mxGeometry relative="1" as="geometry">
            <mxPoint x="-180.00000000000023" y="281" as="targetPoint" />
          </mxGeometry>
        </mxCell>
        <mxCell id="bDUzA2bUJVOD7ySQ1u_B-28" value="Homie.Apis" style="aspect=fixed;html=1;points=[];align=center;image;fontSize=12;image=img/lib/mscae/App_Services.svg;" vertex="1" parent="bDUzA2bUJVOD7ySQ1u_B-1">
          <mxGeometry x="-350" y="256" width="50" height="50" as="geometry" />
        </mxCell>
        <mxCell id="bDUzA2bUJVOD7ySQ1u_B-30" value="SDK &lt;br&gt;BlobStorage" style="text;html=1;align=center;verticalAlign=middle;resizable=0;points=[];autosize=1;" vertex="1" parent="bDUzA2bUJVOD7ySQ1u_B-1">
          <mxGeometry x="339" y="385" width="80" height="30" as="geometry" />
        </mxCell>
        <mxCell id="bDUzA2bUJVOD7ySQ1u_B-32" style="edgeStyle=orthogonalEdgeStyle;rounded=0;orthogonalLoop=1;jettySize=auto;html=1;entryX=0.517;entryY=-0.002;entryDx=0;entryDy=0;entryPerimeter=0;" edge="1" parent="bDUzA2bUJVOD7ySQ1u_B-1" source="bDUzA2bUJVOD7ySQ1u_B-31" target="bDUzA2bUJVOD7ySQ1u_B-28">
          <mxGeometry relative="1" as="geometry" />
        </mxCell>
        <mxCell id="bDUzA2bUJVOD7ySQ1u_B-31" value="api/listings/12345/Generate-Listing-Envelope&lt;br&gt;api/user/12345/Generate-User-Envelope&lt;br&gt;api/offer/12345/Generate-Contract-Envelope" style="text;html=1;align=center;verticalAlign=middle;resizable=0;points=[];autosize=1;" vertex="1" parent="bDUzA2bUJVOD7ySQ1u_B-1">
          <mxGeometry x="-450" y="160" width="250" height="50" as="geometry" />
        </mxCell>
        <mxCell id="bDUzA2bUJVOD7ySQ1u_B-34" value="" style="shape=image;verticalLabelPosition=bottom;labelBackgroundColor=#ffffff;verticalAlign=top;aspect=fixed;imageAspect=0;image=data:image/svg+xml,PHN2ZyB4bWxuczpjYz0iaHR0cDovL2NyZWF0aXZlY29tbW9ucy5vcmcvbnMjIiB4bWxuczpkYz0iaHR0cDovL3B1cmwub3JnL2RjL2VsZW1lbnRzLzEuMS8iIHhtbG5zOmlua3NjYXBlPSJodHRwOi8vd3d3Lmlua3NjYXBlLm9yZy9uYW1lc3BhY2VzL2lua3NjYXBlIiB4bWxuczpyZGY9Imh0dHA6Ly93d3cudzMub3JnLzE5OTkvMDIvMjItcmRmLXN5bnRheC1ucyMiIHhtbG5zOnNvZGlwb2RpPSJodHRwOi8vc29kaXBvZGkuc291cmNlZm9yZ2UubmV0L0RURC9zb2RpcG9kaS0wLmR0ZCIgeG1sbnM6c3ZnPSJodHRwOi8vd3d3LnczLm9yZy8yMDAwL3N2ZyIgeG1sbnM9Imh0dHA6Ly93d3cudzMub3JnLzIwMDAvc3ZnIiB4bWxuczp4bGluaz0iaHR0cDovL3d3dy53My5vcmcvMTk5OS94bGluayIgdmVyc2lvbj0iMS4xIiBpZD0ic3ZnNDkxMzUiIGlua3NjYXBlOnZlcnNpb249IjAuOTIuMyAoMjQwNTU0NiwgMjAxOC0wMy0xMSkiIHNvZGlwb2RpOmRvY25hbWU9Impzb24uc3ZnIiB4PSIwcHgiIHk9IjBweCIgdmlld0JveD0iMCAwIDI2LjcyIDM1LjE1IiBzdHlsZT0iZW5hYmxlLWJhY2tncm91bmQ6bmV3IDAgMCAyNi43MiAzNS4xNTsiIHhtbDpzcGFjZT0icHJlc2VydmUiPiYjeGE7PHNvZGlwb2RpOm5hbWVkdmlldyBib3JkZXJjb2xvcj0iIzY2NjY2NiIgYm9yZGVyb3BhY2l0eT0iMSIgZml0LW1hcmdpbi1ib3R0b209IjAiIGZpdC1tYXJnaW4tbGVmdD0iMCIgZml0LW1hcmdpbi1yaWdodD0iMCIgZml0LW1hcmdpbi10b3A9IjAiIGdyaWR0b2xlcmFuY2U9IjEwIiBndWlkZXRvbGVyYW5jZT0iMTAiIGlkPSJuYW1lZHZpZXc0OTEzNyIgaW5rc2NhcGU6Y3VycmVudC1sYXllcj0ic3ZnNDkxMzUiIGlua3NjYXBlOmN4PSIxNy44MTIxNTYiIGlua3NjYXBlOmN5PSIyMy40MzU4OTYiIGlua3NjYXBlOnBhZ2VvcGFjaXR5PSIwIiBpbmtzY2FwZTpwYWdlc2hhZG93PSIyIiBpbmtzY2FwZTp3aW5kb3ctaGVpZ2h0PSIxMDE3IiBpbmtzY2FwZTp3aW5kb3ctbWF4aW1pemVkPSIxIiBpbmtzY2FwZTp3aW5kb3ctd2lkdGg9IjE5MjAiIGlua3NjYXBlOndpbmRvdy14PSItOCIgaW5rc2NhcGU6d2luZG93LXk9Ii04IiBpbmtzY2FwZTp6b29tPSIxMS40MDYwODkiIG9iamVjdHRvbGVyYW5jZT0iMTAiIHBhZ2Vjb2xvcj0iI2ZmZmZmZiIgc2hvd2dyaWQ9ImZhbHNlIj4mI3hhOwk8L3NvZGlwb2RpOm5hbWVkdmlldz4mI3hhOzxnIGlkPSJnNDkxMzMiIHRyYW5zZm9ybT0idHJhbnNsYXRlKC0xMC45Mjg2LC0xMC45MzE0KSI+JiN4YTsJPHRpdGxlIGlkPSJ0aXRsZTQ5MDYxIj5QYWdlLTE8L3RpdGxlPiYjeGE7CTxnIGlkPSJncm91cDM5ODgtMSIgdHJhbnNmb3JtPSJ0cmFuc2xhdGUoMTAuOTI4NiwtMTAuOTI4NikiPiYjeGE7CQk8dGl0bGUgaWQ9InRpdGxlNDkwNjMiPkpTT04uMjY2PC90aXRsZT4mI3hhOwkJPGcgaWQ9Imdyb3VwMzk4OS0yIj4mI3hhOwkJCTx0aXRsZSBpZD0idGl0bGU0OTA2NSI+SlM8L3RpdGxlPiYjeGE7CQkJPGcgaWQ9Imdyb3VwMzk5MC0zIj4mI3hhOwkJCQk8dGl0bGUgaWQ9InRpdGxlNDkwNjciPlNoZWV0LjM5OTA8L3RpdGxlPiYjeGE7CQkJCTxnIGlkPSJzaGFwZTM5OTEtNCI+JiN4YTsJCQkJCTx0aXRsZSBpZD0idGl0bGU0OTA2OSI+U2hlZXQuMzk5MTwvdGl0bGU+JiN4YTsJCQkJCTxwYXRoIGlkPSJwYXRoNDkwNzEiIGlua3NjYXBlOmNvbm5lY3Rvci1jdXJ2YXR1cmU9IjAiIHN0eWxlPSJmaWxsOiNFOUU5RTA7IiBkPSJNMTguOTQsMjEuODZIMC45MWMtMC41LDAtMC45MSwwLjQxLTAuOTEsMS4yMSAgICAgICB2MzMuMzFjMCwwLjIyLDAuNDEsMC42MywwLjkxLDAuNjNoMjQuOWMwLjUsMCwwLjkxLTAuNDEsMC45MS0wLjYzVjMwYzAtMC40My0wLjA2LTAuNTctMC4xNi0wLjY4bC03LjIzLTcuMyAgICAgICBDMTkuMjMsMjEuOTIsMTkuMDksMjEuODYsMTguOTQsMjEuODZ6Ii8+JiN4YTsJCQkJPC9nPiYjeGE7CQkJCTxnIGlkPSJzaGFwZTM5OTItNiIgdHJhbnNmb3JtPSJ0cmFuc2xhdGUoMTkuMjYyLC0yNy42MTkzKSI+JiN4YTsJCQkJCTx0aXRsZSBpZD0idGl0bGU0OTA3NCI+U2hlZXQuMzk5MjwvdGl0bGU+JiN4YTsJCQkJCTxwYXRoIGlkPSJwYXRoNDkwNzYiIGlua3NjYXBlOmNvbm5lY3Rvci1jdXJ2YXR1cmU9IjAiIHN0eWxlPSJmaWxsOiNEOUQ3Q0E7IiBkPSJNMCw0OS41N3Y3LjQ0aDcuMzZMMCw0OS41N3oiLz4mI3hhOwkJCQk8L2c+JiN4YTsJCQkJPGcgaWQ9InNoYXBlMzk5My04Ij4mI3hhOwkJCQkJPHRpdGxlIGlkPSJ0aXRsZTQ5MDc5Ij5TaGVldC4zOTkzPC90aXRsZT4mI3hhOwkJCQkJPHBhdGggaWQ9InBhdGg0OTA4MSIgaW5rc2NhcGU6Y29ubmVjdG9yLWN1cnZhdHVyZT0iMCIgc3R5bGU9ImZpbGw6I0U5QUM0NzsiIGQ9Ik0yNS44MSw1Ny4wMUgwLjkxQzAuNDEsNTcuMDEsMCw1Ni42LDAsNTYuMDkgICAgICAgdi05Ljc1aDI2LjcydjkuNzVDMjYuNzIsNTYuNiwyNi4zMSw1Ny4wMSwyNS44MSw1Ny4wMXoiLz4mI3hhOwkJCQk8L2c+JiN4YTsJCQkJPGcgaWQ9Imdyb3VwMzk5NC0xMCIgdHJhbnNmb3JtPSJ0cmFuc2xhdGUoNC45NzA4NSwtMTUuMDY1MSkiPiYjeGE7CQkJCQk8dGl0bGUgaWQ9InRpdGxlNDkwODQiPlNoZWV0LjM5OTQ8L3RpdGxlPiYjeGE7CQkJCQk8ZyBpZD0ic2hhcGUzOTk1LTExIj4mI3hhOwkJCQkJCTx0aXRsZSBpZD0idGl0bGU0OTA4NiI+U2hlZXQuMzk5NTwvdGl0bGU+JiN4YTsJCQkJCQk8cGF0aCBpZD0icGF0aDQ5MDg4IiBpbmtzY2FwZTpjb25uZWN0b3ItY3VydmF0dXJlPSIwIiBzdHlsZT0iZmlsbDojRTlBQzQ3OyIgZD0iTTMuMTEsNDguODV2LTIuNTEgICAgICAgIGMwLTAuMzUsMC4yOC0wLjYzLDAuNjItMC42M3MwLjYyLTAuMjgsMC42Mi0wLjYzYzAtMC4zNC0wLjI4LTAuNjMtMC42Mi0wLjYzYy0xLjAzLDAtMS44NywwLjg1LTEuODcsMS44OXYyLjUxICAgICAgICBjMCwwLjY5LTAuNTUsMS4yNS0xLjI0LDEuMjVDMC4yOCw1MC4xLDAsNTAuMzksMCw1MC43M2MwLDAuMzUsMC4yOCwwLjYzLDAuNjIsMC42M2MwLjY5LDAsMS4yNCwwLjU2LDEuMjQsMS4yNnYyLjUxICAgICAgICBjMCwxLjAzLDAuODQsMS44OCwxLjg3LDEuODhjMC4zNCwwLDAuNjItMC4yOCwwLjYyLTAuNjNjMC0wLjM1LTAuMjgtMC42My0wLjYyLTAuNjNzLTAuNjItMC4yOC0wLjYyLTAuNjJ2LTIuNTEgICAgICAgIGMwLTAuNzYtMC4zNC0xLjQzLTAuODYtMS44OUMyLjc3LDUwLjI3LDMuMTEsNDkuNiwzLjExLDQ4Ljg1eiIvPiYjeGE7CQkJCQk8L2c+JiN4YTsJCQkJCTxnIGlkPSJzaGFwZTM5OTYtMTMiIHRyYW5zZm9ybT0idHJhbnNsYXRlKDcuMTQ1NTksLTcuNTMyNTQpIj4mI3hhOwkJCQkJCTx0aXRsZSBpZD0idGl0bGU0OTA5MSI+U2hlZXQuMzk5NjwvdGl0bGU+JiN4YTsJCQkJCQk8ZWxsaXBzZSBpZD0iZWxsaXBzZTQ5MDkzIiBzdHlsZT0iZmlsbDojRTlBQzQ3OyIgY3g9IjAuOTMiIGN5PSI1Ni4wNyIgcng9IjAuOTMiIHJ5PSIwLjk0Ii8+JiN4YTsJCQkJCTwvZz4mI3hhOwkJCQkJPGcgaWQ9InNoYXBlMzk5Ny0xNSIgdHJhbnNmb3JtPSJ0cmFuc2xhdGUoMTEuODA1OCkiPiYjeGE7CQkJCQkJPHRpdGxlIGlkPSJ0aXRsZTQ5MDk2Ij5TaGVldC4zOTk3PC90aXRsZT4mI3hhOwkJCQkJCTxwYXRoIGlkPSJwYXRoNDkwOTgiIGlua3NjYXBlOmNvbm5lY3Rvci1jdXJ2YXR1cmU9IjAiIHN0eWxlPSJmaWxsOiNFOUFDNDc7IiBkPSJNMy43Myw1MC4xYy0wLjY5LDAtMS4yNC0wLjU2LTEuMjQtMS4yNSAgICAgICAgdi0yLjUxYzAtMS4wNC0wLjg0LTEuODktMS44Ny0xLjg5QzAuMjgsNDQuNDUsMCw0NC43NCwwLDQ1LjA4YzAsMC4zNSwwLjI4LDAuNjMsMC42MiwwLjYzczAuNjIsMC4yOCwwLjYyLDAuNjN2Mi41MSAgICAgICAgYzAsMC43NSwwLjM0LDEuNDIsMC44NiwxLjg4Yy0wLjUyLDAuNDYtMC44NiwxLjEzLTAuODYsMS44OXYyLjUxYzAsMC4zNC0wLjI4LDAuNjItMC42MiwwLjYyUzAsNTYuMDMsMCw1Ni4zOCAgICAgICAgYzAsMC4zNSwwLjI4LDAuNjMsMC42MiwwLjYzYzEuMDMsMCwxLjg3LTAuODUsMS44Ny0xLjg4di0yLjUxYzAtMC43LDAuNTUtMS4yNiwxLjI0LTEuMjZjMC4zNCwwLDAuNjItMC4yOCwwLjYyLTAuNjMgICAgICAgIEM0LjM1LDUwLjM5LDQuMDcsNTAuMSwzLjczLDUwLjF6Ii8+JiN4YTsJCQkJCTwvZz4mI3hhOwkJCQkJPGcgaWQ9InNoYXBlMzk5OC0xNyIgdHJhbnNmb3JtPSJ0cmFuc2xhdGUoNy40NTYyNywtMS44ODMxNCkiPiYjeGE7CQkJCQkJPHRpdGxlIGlkPSJ0aXRsZTQ5MTAxIj5TaGVldC4zOTk4PC90aXRsZT4mI3hhOwkJCQkJCTxwYXRoIGlkPSJwYXRoNDkxMDMiIGlua3NjYXBlOmNvbm5lY3Rvci1jdXJ2YXR1cmU9IjAiIHN0eWxlPSJmaWxsOiNFOUFDNDc7IiBkPSJNMC42Miw1My44N0MwLjI4LDUzLjg3LDAsNTQuMTUsMCw1NC41djEuODggICAgICAgIGMwLDAuMzUsMC4yOCwwLjYzLDAuNjIsMC42M3MwLjYyLTAuMjgsMC42Mi0wLjYzVjU0LjVDMS4yNCw1NC4xNSwwLjk2LDUzLjg3LDAuNjIsNTMuODd6Ii8+JiN4YTsJCQkJCTwvZz4mI3hhOwkJCQk8L2c+JiN4YTsJCQk8L2c+JiN4YTsJCTwvZz4mI3hhOwkJPGcgaWQ9Imdyb3VwMzk5OS0xOSIgdHJhbnNmb3JtPSJ0cmFuc2xhdGUoMy44MTMzNCwtMi40NTc4MSkiPiYjeGE7CQkJPHRpdGxlIGlkPSJ0aXRsZTQ5MTA5Ij5KU09OLjM2NjY0PC90aXRsZT4mI3hhOwkJCTxnIGlkPSJzaGFwZTQwMDAtMjAiIHRyYW5zZm9ybT0idHJhbnNsYXRlKDAsLTUuMzA5NzJlLTUpIj4mI3hhOwkJCQk8dGl0bGUgaWQ9InRpdGxlNDkxMTEiPlNoZWV0LjQwMDA8L3RpdGxlPiYjeGE7CQkJCTxwYXRoIGlkPSJwYXRoNDkxMTMiIGlua3NjYXBlOmNvbm5lY3Rvci1jdXJ2YXR1cmU9IjAiIHN0eWxlPSJmaWxsOiNGRkZGRkY7IiBkPSJNMy40OCw1MS4xN3Y0LjQzYzAsMC4yNi0wLjA1LDAuNDktMC4xNSwwLjY3ICAgICAgYy0wLjA5LDAuMTgtMC4yMywwLjMzLTAuMzksMC40NGMtMC4xNiwwLjExLTAuMzUsMC4xOS0wLjU3LDAuMjNjLTAuMjEsMC4wNS0wLjQzLDAuMDctMC42NiwwLjA3Yy0wLjExLDAtMC4yNC0wLjAxLTAuMzktMC4wNCAgICAgIGMtMC4xNi0wLjAyLTAuMzEtMC4wNS0wLjQ4LTAuMWMtMC4xNi0wLjA1LTAuMzEtMC4xMS0wLjQ2LTAuMTdDMC4yMyw1Ni42NCwwLjEsNTYuNTcsMCw1Ni40OWwwLjM5LTAuNjIgICAgICBjMC4wNSwwLjAzLDAuMTMsMC4wNywwLjIyLDAuMTFjMC4xLDAuMDQsMC4yLDAuMDcsMC4zMiwwLjExYzAuMTEsMC4wMywwLjIzLDAuMDYsMC4zNSwwLjA5YzAuMTIsMC4wMiwwLjI0LDAuMDMsMC4zNSwwLjAzICAgICAgYzAuMjcsMCwwLjQ5LTAuMDUsMC42NS0wLjE1YzAuMTYtMC4xMSwwLjI1LTAuMjksMC4yNi0wLjU0di00LjM1TDMuNDgsNTEuMTd6Ii8+JiN4YTsJCQk8L2c+JiN4YTsJCQk8ZyBpZD0ic2hhcGU0MDAxLTIyIiB0cmFuc2Zvcm09InRyYW5zbGF0ZSg0Ljc4NDA1LC0wLjAwNzg1ODM4KSI+JiN4YTsJCQkJPHRpdGxlIGlkPSJ0aXRsZTQ5MTE2Ij5TaGVldC40MDAxPC90aXRsZT4mI3hhOwkJCQk8cGF0aCBpZD0icGF0aDQ5MTE4IiBpbmtzY2FwZTpjb25uZWN0b3ItY3VydmF0dXJlPSIwIiBzdHlsZT0iZmlsbDojRkZGRkZGOyIgZD0iTTMuMyw1NS40MmMwLDAuMjEtMC4wNCwwLjQtMC4xMiwwLjYgICAgICBjLTAuMDksMC4xOS0wLjIxLDAuMzYtMC4zNiwwLjUxYy0wLjE2LDAuMTQtMC4zNSwwLjI2LTAuNTcsMC4zNWMtMC4yMywwLjA5LTAuNDksMC4xMy0wLjc4LDAuMTNjLTAuMTIsMC0wLjI1LTAuMDEtMC4zOC0wLjAyICAgICAgYy0wLjEzLTAuMDEtMC4yNi0wLjA0LTAuNC0wLjA3Yy0wLjEzLTAuMDMtMC4yNi0wLjA3LTAuMzgtMC4xMkMwLjE5LDU2Ljc0LDAuMDksNTYuNjgsMCw1Ni42bDAuMTYtMC42NiAgICAgIGMwLjA3LDAuMDQsMC4xNywwLjA4LDAuMjgsMC4xMmMwLjExLDAuMDMsMC4yMiwwLjA3LDAuMzQsMC4xYzAuMTIsMC4wNCwwLjI0LDAuMDYsMC4zNSwwLjA4YzAuMTIsMC4wMywwLjIzLDAuMDQsMC4zNCwwLjA0ICAgICAgYzAuMzEsMCwwLjU1LTAuMDgsMC43Mi0wLjIyYzAuMTYtMC4xNSwwLjI1LTAuMzcsMC4yNS0wLjY2YzAtMC4xNy0wLjA2LTAuMzItMC4xOC0wLjQ0Yy0wLjEyLTAuMTMtMC4yNy0wLjI0LTAuNDQtMC4zNCAgICAgIGMtMC4xOC0wLjEtMC4zNy0wLjItMC41OC0wLjNjLTAuMi0wLjEtMC40LTAuMjItMC41OC0wLjM2Yy0wLjE4LTAuMTMtMC4zMy0wLjI5LTAuNDQtMC40OGMtMC4xMi0wLjE4LTAuMTgtMC40MS0wLjE4LTAuNjkgICAgICBjMC0wLjI1LDAuMDQtMC40OCwwLjE0LTAuNjdjMC4wOS0wLjIsMC4yMS0wLjM2LDAuMzctMC41czAuMzQtMC4yNCwwLjU1LTAuMzFjMC4yMS0wLjA4LDAuNDMtMC4xMSwwLjY2LTAuMTEgICAgICBjMC4yNCwwLDAuNDgsMC4wMiwwLjcyLDAuMDZjMC4yNCwwLjA1LDAuNDMsMC4xMiwwLjU4LDAuMjJDMy4wMyw1MS41NCwzLDUxLjYyLDIuOTYsNTEuN2MtMC4wNSwwLjA4LTAuMDgsMC4xNS0wLjEyLDAuMjIgICAgICBjLTAuMDQsMC4wNy0wLjA3LDAuMTMtMC4wOSwwLjE3Yy0wLjAzLDAuMDUtMC4wNCwwLjA4LTAuMDUsMC4wOGMtMC4wMy0wLjAxLTAuMDYtMC4wMy0wLjEtMC4wNmMtMC4wNC0wLjAzLTAuMS0wLjA1LTAuMTctMC4wOCAgICAgIGMtMC4wNy0wLjAyLTAuMTctMC4wNC0wLjI5LTAuMDVjLTAuMTEtMC4wMS0wLjI3LTAuMDEtMC40NSwwLjAxYy0wLjEsMC4wMS0wLjIsMC4wNC0wLjI5LDAuMDhjLTAuMSwwLjA1LTAuMTgsMC4xMS0wLjI1LDAuMTkgICAgICBjLTAuMDcsMC4wNy0wLjEzLDAuMTUtMC4xNywwLjI0Yy0wLjA0LDAuMDktMC4wNiwwLjE4LTAuMDYsMC4yNmMwLDAuMiwwLjA2LDAuMzcsMC4xNywwLjVjMC4xMiwwLjEyLDAuMjcsMC4yMywwLjQ0LDAuMzMgICAgICBjMC4xOCwwLjA5LDAuMzcsMC4xOSwwLjU4LDAuMjhjMC4yLDAuMDgsMC4zOSwwLjE5LDAuNTcsMC4zMmMwLjE4LDAuMTMsMC4zMywwLjI5LDAuNDQsMC40OUMzLjI0LDU0Ljg3LDMuMyw1NS4xMiwzLjMsNTUuNDJ6Ii8+JiN4YTsJCQk8L2c+JiN4YTsJCQk8ZyBpZD0ic2hhcGU0MDAyLTI0IiB0cmFuc2Zvcm09InRyYW5zbGF0ZSg4LjkzNjUyKSI+JiN4YTsJCQkJPHRpdGxlIGlkPSJ0aXRsZTQ5MTIxIj5TaGVldC40MDAyPC90aXRsZT4mI3hhOwkJCQk8cGF0aCBpZD0icGF0aDQ5MTIzIiBpbmtzY2FwZTpjb25uZWN0b3ItY3VydmF0dXJlPSIwIiBzdHlsZT0iZmlsbDojRkZGRkZGOyIgZD0iTTQuNzQsNTQuMWMwLDAuNDgtMC4wNiwwLjktMC4xOCwxLjI3ICAgICAgYy0wLjEyLDAuMzYtMC4yOSwwLjY2LTAuNTEsMC45MWMtMC4yMSwwLjI0LTAuNDYsMC40Mi0wLjc0LDAuNTRjLTAuMjksMC4xMy0wLjYsMC4xOS0wLjk0LDAuMTlzLTAuNjUtMC4wNi0wLjk0LTAuMTkgICAgICBjLTAuMjgtMC4xMi0wLjUzLTAuMy0wLjc1LTAuNTRjLTAuMjEtMC4yNS0wLjM4LTAuNTUtMC41LTAuOTFDMC4wNiw1NSwwLDU0LjU4LDAsNTQuMWMwLTAuNDgsMC4wNi0wLjksMC4xOC0xLjI2ICAgICAgczAuMjktMC42NywwLjUtMC45MWMwLjIyLTAuMjQsMC40Ny0wLjQyLDAuNzUtMC41NWMwLjI5LTAuMTMsMC42LTAuMTksMC45NC0wLjE5czAuNjUsMC4wNiwwLjk0LDAuMTkgICAgICBjMC4yOCwwLjEzLDAuNTMsMC4zMSwwLjc0LDAuNTVjMC4yMiwwLjI0LDAuMzksMC41NSwwLjUxLDAuOTFDNC42OCw1My4yLDQuNzQsNTMuNjIsNC43NCw1NC4xeiBNMi4zNSw1Ni4yNSAgICAgIGMwLjE5LDAsMC4zNy0wLjAzLDAuNTQtMC4xMWMwLjE3LTAuMDcsMC4zMy0wLjIsMC40Ni0wLjM2YzAuMTQtMC4xNywwLjI1LTAuNCwwLjMyLTAuNjdjMC4wOC0wLjI4LDAuMTItMC42MSwwLjEzLTEuMDEgICAgICBjLTAuMDEtMC4zOS0wLjA1LTAuNzEtMC4xMi0wLjk4Yy0wLjA4LTAuMjctMC4xOC0wLjUtMC4zMS0wLjY3Yy0wLjEzLTAuMTgtMC4yOC0wLjMtMC40NS0wLjM4Yy0wLjE3LTAuMDgtMC4zNC0wLjExLTAuNTMtMC4xMSAgICAgIGMtMC4xOSwwLTAuMzcsMC4wMy0wLjU0LDAuMWMtMC4xOCwwLjA4LTAuMzMsMC4yLTAuNDcsMC4zN2MtMC4xMywwLjE3LTAuMjQsMC4zOS0wLjMyLDAuNjdjLTAuMDcsMC4yNy0wLjExLDAuNi0wLjEyLDEgICAgICBjMC4wMSwwLjM5LDAuMDUsMC43MiwwLjEyLDAuOTljMC4wOCwwLjI3LDAuMTgsMC40OSwwLjMxLDAuNjdjMC4xMywwLjE3LDAuMjgsMC4yOSwwLjQ1LDAuMzdDMS45OCw1Ni4yMSwyLjE2LDU2LjI1LDIuMzUsNTYuMjUgICAgICB6Ii8+JiN4YTsJCQk8L2c+JiN4YTsJCQk8ZyBpZD0ic2hhcGU0MDAzLTI2IiB0cmFuc2Zvcm09InRyYW5zbGF0ZSgxNC45Nzg3LC0wLjAzODM4OTIpIj4mI3hhOwkJCQk8dGl0bGUgaWQ9InRpdGxlNDkxMjYiPlNoZWV0LjQwMDM8L3RpdGxlPiYjeGE7CQkJCTxwYXRoIGlkPSJwYXRoNDkxMjgiIGlua3NjYXBlOmNvbm5lY3Rvci1jdXJ2YXR1cmU9IjAiIHN0eWxlPSJmaWxsOiNGRkZGRkY7IiBkPSJNNC4xMSw1MS4zMnY1LjY5SDMuMTdsLTIuMjMtMy45MnYzLjkySDB2LTUuNjkgICAgICBoMC45NGwyLjIzLDMuOTJ2LTMuOTJMNC4xMSw1MS4zMnoiLz4mI3hhOwkJCTwvZz4mI3hhOwkJPC9nPiYjeGE7CTwvZz4mI3hhOzwvZz4mI3hhOzwvc3ZnPg==;" vertex="1" parent="bDUzA2bUJVOD7ySQ1u_B-1">
          <mxGeometry x="-200" y="240" width="27" height="35" as="geometry" />
        </mxCell>
        <mxCell id="bDUzA2bUJVOD7ySQ1u_B-37" value="&lt;b&gt;CreateEnvelope (DocuSign)&lt;/b&gt;" style="text;html=1;align=center;verticalAlign=middle;resizable=0;points=[];autosize=1;" vertex="1" parent="bDUzA2bUJVOD7ySQ1u_B-1">
          <mxGeometry x="-750" y="300" width="170" height="20" as="geometry" />
        </mxCell>
        <mxCell id="bDUzA2bUJVOD7ySQ1u_B-38" value="&lt;div style=&quot;text-align: center&quot;&gt;&lt;span&gt;&lt;b&gt;PUT DocusignEnvelopeDetails (Homie.Documents)&lt;/b&gt;&lt;/span&gt;&lt;/div&gt;&lt;span&gt;StatusDateTime&lt;/span&gt;&lt;br&gt;&lt;span&gt;EnvelopeId&lt;/span&gt;&lt;br&gt;&lt;span&gt;Status&lt;/span&gt;&lt;br&gt;&lt;span&gt;Subject&lt;/span&gt;&lt;br&gt;&lt;div&gt;VersionTimeStamp&lt;/div&gt;" style="text;html=1;align=left;verticalAlign=middle;resizable=0;points=[];autosize=1;" vertex="1" parent="bDUzA2bUJVOD7ySQ1u_B-1">
          <mxGeometry x="-710" y="350" width="310" height="90" as="geometry" />
        </mxCell>
        <mxCell id="bDUzA2bUJVOD7ySQ1u_B-44" value="&lt;div&gt;PATCH (Homie.Documents)&lt;/div&gt;&lt;div&gt;{&lt;/div&gt;&lt;div&gt;&amp;nbsp; &amp;nbsp; &quot;EnvelopeId&quot;: &quot;GUID&quot;,&lt;br&gt;&amp;nbsp; &amp;nbsp; &quot;Resources&quot;:&amp;nbsp;&lt;br&gt;&lt;/div&gt;&lt;div&gt;}&lt;/div&gt;&lt;div&gt;&lt;br&gt;&lt;/div&gt;" style="text;html=1;align=left;verticalAlign=middle;resizable=0;points=[];autosize=1;" vertex="1" parent="bDUzA2bUJVOD7ySQ1u_B-1">
          <mxGeometry x="-579" y="450" width="160" height="90" as="geometry" />
        </mxCell>
      </root>
    </mxGraphModel>
  </diagram>
</mxfile>
